<svg width="1295" height="336" viewBox="0 0 1295 336" fill="none" xmlns="http://www.w3.org/2000/svg">
<path d="M1199.77 66.7678C1200.74 65.7915 1200.74 64.2085 1199.77 63.2322L1183.86 47.3223C1182.88 46.346 1181.3 46.346 1180.32 47.3223C1179.35 48.2986 1179.35 49.8816 1180.32 50.8579L1194.46 65L1180.32 79.1421C1179.35 80.1184 1179.35 81.7014 1180.32 82.6777C1181.3 83.654 1182.88 83.654 1183.86 82.6777L1199.77 66.7678ZM847 62.5C845.619 62.5 844.5 63.6193 844.5 65C844.5 66.3807 845.619 67.5 847 67.5V62.5ZM1198 62.5L847 62.5V67.5L1198 67.5V62.5Z" fill="url(#paint0_linear_124_6)"/>
<path d="M451.768 150.768C452.744 149.791 452.744 148.209 451.768 147.232L435.858 131.322C434.882 130.346 433.299 130.346 432.322 131.322C431.346 132.299 431.346 133.882 432.322 134.858L446.464 149L432.322 163.142C431.346 164.118 431.346 165.701 432.322 166.678C433.299 167.654 434.882 167.654 435.858 166.678L451.768 150.768ZM99 146.5C97.6193 146.5 96.5 147.619 96.5 149C96.5 150.381 97.6193 151.5 99 151.5V146.5ZM450 146.5L99 146.5V151.5L450 151.5V146.5Z" fill="url(#paint1_linear_124_6)"/>
<path d="M673.232 271.232C672.256 272.209 672.256 273.791 673.232 274.768L689.142 290.678C690.118 291.654 691.701 291.654 692.678 290.678C693.654 289.701 693.654 288.118 692.678 287.142L678.536 273L692.678 258.858C693.654 257.882 693.654 256.299 692.678 255.322C691.701 254.346 690.118 254.346 689.142 255.322L673.232 271.232ZM1276 275.5C1277.38 275.5 1278.5 274.381 1278.5 273C1278.5 271.619 1277.38 270.5 1276 270.5V275.5ZM675 275.5H1276V270.5H675V275.5Z" fill="url(#paint2_linear_124_6)"/>
<g filter="url(#filter0_f_124_6)">
<circle cx="65" cy="65" r="45" fill="url(#paint3_linear_124_6)"/>
</g>
<g filter="url(#filter1_f_124_6)">
<circle cx="1231" cy="170" r="45" fill="url(#paint4_linear_124_6)"/>
</g>
<g filter="url(#filter2_f_124_6)">
<circle cx="571" cy="271" r="45" fill="url(#paint5_linear_124_6)"/>
</g>
<path d="M143.12 78V44.4H157.856C161.216 44.4 163.824 45.216 165.68 46.848C167.568 48.48 168.512 50.704 168.512 53.52C168.512 56.4 167.152 58.576 164.432 60.048C167.728 61.712 169.376 64.352 169.376 67.968C169.376 71.136 168.384 73.6 166.4 75.36C164.448 77.12 161.6 78 157.856 78H143.12ZM149.888 57.6H157.184C158.56 57.6 159.616 57.28 160.352 56.64C161.12 55.968 161.504 55.04 161.504 53.856C161.504 51.36 160.064 50.112 157.184 50.112H149.888V57.6ZM149.888 72.336H157.328C158.96 72.336 160.208 71.92 161.072 71.088C161.968 70.256 162.416 69.136 162.416 67.728C162.416 66.352 161.968 65.264 161.072 64.464C160.176 63.664 158.928 63.264 157.328 63.264H149.888V72.336ZM173.814 78V54.48H180.39V60.336H185.574C188.838 60.336 191.35 61.152 193.11 62.784C194.902 64.416 195.798 66.592 195.798 69.312C195.798 71.968 194.902 74.08 193.11 75.648C191.35 77.216 188.838 78 185.574 78H173.814ZM198.534 78V54.48H205.11V78H198.534ZM180.39 72.624H185.43C186.454 72.624 187.302 72.304 187.974 71.664C188.646 71.024 188.982 70.192 188.982 69.168C188.982 68.144 188.646 67.312 187.974 66.672C187.302 66.032 186.454 65.712 185.43 65.712H180.39V72.624ZM230.125 78.48C227.341 78.48 225.021 77.856 223.165 76.608C221.309 75.328 220.141 73.616 219.661 71.472L225.325 70.032C225.581 70.992 226.093 71.76 226.861 72.336C227.661 72.912 228.653 73.2 229.837 73.2C230.925 73.2 231.821 72.976 232.525 72.528C233.229 72.048 233.581 71.424 233.581 70.656C233.581 69.92 233.213 69.328 232.477 68.88C231.741 68.432 230.717 68.208 229.405 68.208H226.621V63.696H229.405C230.621 63.696 231.549 63.504 232.189 63.12C232.861 62.704 233.197 62.176 233.197 61.536C233.197 60.832 232.861 60.288 232.189 59.904C231.517 59.488 230.669 59.28 229.645 59.28C228.525 59.28 227.581 59.536 226.813 60.048C226.077 60.56 225.581 61.264 225.325 62.16L219.661 60.72C220.141 58.64 221.293 57.008 223.117 55.824C224.941 54.608 227.197 54 229.885 54C232.797 54 235.165 54.672 236.989 56.016C238.845 57.328 239.773 59.008 239.773 61.056C239.773 63.232 238.781 64.88 236.797 66C239.037 67.248 240.157 69.024 240.157 71.328C240.157 73.376 239.229 75.088 237.373 76.464C235.517 77.808 233.101 78.48 230.125 78.48ZM265.627 72.816C265.755 72.816 266.107 72.752 266.683 72.624V78.144C265.947 78.368 265.115 78.48 264.187 78.48C261.307 78.48 259.387 77.568 258.427 75.744C256.763 77.568 254.347 78.48 251.179 78.48C248.747 78.48 246.763 77.856 245.227 76.608C243.691 75.36 242.923 73.616 242.923 71.376C242.923 69.296 243.627 67.648 245.035 66.432C246.443 65.184 248.299 64.448 250.603 64.224L257.803 63.504V63.024C257.803 61.84 257.419 60.912 256.651 60.24C255.883 59.568 254.907 59.232 253.723 59.232C251.611 59.232 250.299 60.224 249.787 62.208L243.979 61.296C244.395 58.768 245.531 56.928 247.387 55.776C249.275 54.592 251.531 54 254.155 54C257.323 54 259.819 54.768 261.643 56.304C263.467 57.84 264.379 60.032 264.379 62.88V71.52C264.379 72.384 264.795 72.816 265.627 72.816ZM257.803 68.64V67.872L252.379 68.544C251.419 68.64 250.667 68.928 250.123 69.408C249.611 69.856 249.355 70.432 249.355 71.136C249.355 71.968 249.707 72.592 250.411 73.008C251.115 73.424 252.027 73.616 253.147 73.584C254.523 73.52 255.643 73.056 256.507 72.192C257.371 71.328 257.803 70.144 257.803 68.64ZM270.424 78V54.48H293.128V78H286.552V60.24H277V78H270.424ZM318.994 75.12C316.594 77.36 313.586 78.48 309.97 78.48C306.354 78.48 303.33 77.36 300.898 75.12C298.498 72.848 297.298 69.92 297.298 66.336C297.298 62.656 298.498 59.68 300.898 57.408C303.298 55.136 306.322 54 309.97 54C313.586 54 316.594 55.152 318.994 57.456C321.394 59.728 322.594 62.688 322.594 66.336C322.594 69.92 321.394 72.848 318.994 75.12ZM305.746 70.896C306.866 72.016 308.274 72.576 309.97 72.576C311.666 72.576 313.074 72.016 314.194 70.896C315.314 69.744 315.874 68.208 315.874 66.288C315.874 64.304 315.314 62.736 314.194 61.584C313.074 60.432 311.666 59.856 309.97 59.856C308.274 59.856 306.866 60.432 305.746 61.584C304.626 62.736 304.066 64.304 304.066 66.288C304.066 68.208 304.626 69.744 305.746 70.896ZM323.988 78.48V72.768H325.428C327.7 72.768 328.916 71.456 329.076 68.832L330.18 54.48H350.676V78H344.1V60.24H336.372L335.652 69.024C335.396 72.064 334.388 74.4 332.628 76.032C330.9 77.664 328.5 78.48 325.428 78.48H323.988ZM356.158 78V54.48H362.734V63.504H372.286V54.48H378.862V78H372.286V69.264H362.734V78H356.158ZM382.553 78L387.401 69.984C385.993 69.344 384.889 68.384 384.089 67.104C383.321 65.792 382.937 64.304 382.937 62.64C382.937 60.048 383.721 58.048 385.289 56.64C386.889 55.2 389.033 54.48 391.721 54.48H404.297V78H397.913V70.992H393.785L389.657 78H382.553ZM392.633 65.808H397.913V59.664H392.633C391.641 59.664 390.825 59.952 390.185 60.528C389.577 61.072 389.273 61.792 389.273 62.688C389.273 63.616 389.577 64.368 390.185 64.944C390.825 65.52 391.641 65.808 392.633 65.808ZM420.775 78.48C417.223 78.48 414.279 77.36 411.943 75.12C409.607 72.848 408.439 69.888 408.439 66.24C408.439 62.624 409.591 59.68 411.895 57.408C414.231 55.136 417.143 54 420.631 54C424.023 54 426.823 55.072 429.031 57.216C431.239 59.36 432.343 62.176 432.343 65.664C432.343 66.112 432.295 66.816 432.199 67.776H415.063C415.287 69.536 415.911 70.896 416.935 71.856C417.991 72.816 419.271 73.296 420.775 73.296C421.991 73.296 423.047 72.992 423.943 72.384C424.839 71.776 425.399 70.912 425.623 69.792L431.383 71.376C430.775 73.712 429.495 75.488 427.543 76.704C425.623 77.888 423.367 78.48 420.775 78.48ZM415.303 63.36H426.007C425.815 62.208 425.239 61.248 424.279 60.48C423.319 59.68 422.119 59.28 420.679 59.28C417.927 59.28 416.135 60.64 415.303 63.36ZM441.639 78V60.24H434.295V54.48H455.511V60.24H448.215V78H441.639ZM469.337 78.48C465.785 78.48 462.841 77.36 460.505 75.12C458.169 72.848 457.001 69.888 457.001 66.24C457.001 62.624 458.153 59.68 460.457 57.408C462.793 55.136 465.705 54 469.193 54C472.585 54 475.385 55.072 477.593 57.216C479.801 59.36 480.905 62.176 480.905 65.664C480.905 66.112 480.857 66.816 480.761 67.776H463.625C463.849 69.536 464.473 70.896 465.497 71.856C466.553 72.816 467.833 73.296 469.337 73.296C470.553 73.296 471.609 72.992 472.505 72.384C473.401 71.776 473.961 70.912 474.185 69.792L479.945 71.376C479.337 73.712 478.057 75.488 476.105 76.704C474.185 77.888 471.929 78.48 469.337 78.48ZM463.865 63.36H474.569C474.377 62.208 473.801 61.248 472.841 60.48C471.881 59.68 470.681 59.28 469.241 59.28C466.489 59.28 464.697 60.64 463.865 63.36ZM507.205 78.48C503.653 78.48 500.757 77.376 498.517 75.168C496.309 72.928 495.205 69.792 495.205 65.76C495.205 62.752 495.765 59.824 496.885 56.976C498.005 54.128 499.813 51.536 502.309 49.2C504.837 46.864 507.829 45.296 511.285 44.496L517.429 43.008V48.768L512.965 49.92C510.181 50.624 507.877 51.696 506.053 53.136C504.261 54.544 502.853 56.496 501.829 58.992C503.589 56.848 506.085 55.776 509.317 55.776C512.325 55.776 514.773 56.8 516.661 58.848C518.581 60.864 519.541 63.52 519.541 66.816C519.541 70.368 518.389 73.2 516.085 75.312C513.813 77.424 510.853 78.48 507.205 78.48ZM507.397 72.576C508.933 72.576 510.213 72.08 511.237 71.088C512.293 70.064 512.821 68.736 512.821 67.104C512.821 65.472 512.293 64.16 511.237 63.168C510.213 62.144 508.917 61.632 507.349 61.632C505.781 61.632 504.485 62.144 503.461 63.168C502.469 64.192 501.973 65.52 501.973 67.152C501.973 68.784 502.485 70.096 503.509 71.088C504.533 72.08 505.829 72.576 507.397 72.576ZM537.561 54C540.825 54 543.561 55.152 545.769 57.456C548.009 59.728 549.129 62.656 549.129 66.24C549.129 69.792 548.025 72.72 545.817 75.024C543.609 77.328 540.873 78.48 537.609 78.48C534.473 78.48 532.025 77.472 530.265 75.456V87.6H523.689V54.48H530.265V56.976C532.057 54.992 534.489 54 537.561 54ZM531.945 70.992C533.097 72.176 534.537 72.768 536.265 72.768C537.993 72.768 539.433 72.176 540.585 70.992C541.737 69.776 542.313 68.192 542.313 66.24C542.313 64.256 541.737 62.672 540.585 61.488C539.433 60.304 537.993 59.712 536.265 59.712C534.537 59.712 533.097 60.32 531.945 61.536C530.825 62.72 530.265 64.288 530.265 66.24C530.265 68.192 530.825 69.776 531.945 70.992ZM553.267 78V54.48H559.843V67.632L570.739 54.48H576.403V78H569.827V64.896L558.931 78H553.267ZM592.565 87.6V78.384C588.885 77.936 585.957 76.64 583.781 74.496C581.605 72.32 580.517 69.6 580.517 66.336C580.517 63.008 581.605 60.256 583.781 58.08C585.957 55.904 588.885 54.592 592.565 54.144V44.4H597.749V54.192C601.397 54.64 604.309 55.952 606.485 58.128C608.693 60.304 609.797 63.04 609.797 66.336C609.797 69.536 608.693 72.224 606.485 74.4C604.277 76.576 601.365 77.888 597.749 78.336V87.6H592.565ZM592.565 72.288V60.192C590.933 60.576 589.637 61.296 588.677 62.352C587.749 63.376 587.285 64.704 587.285 66.336C587.285 67.872 587.749 69.168 588.677 70.224C589.637 71.248 590.933 71.936 592.565 72.288ZM597.749 72.288C599.381 71.904 600.677 71.2 601.637 70.176C602.597 69.152 603.077 67.872 603.077 66.336C603.077 64.768 602.597 63.456 601.637 62.4C600.677 61.312 599.381 60.576 597.749 60.192V72.288ZM625.983 78V54.768H631.119V64.176H642.255V54.768H647.391V78H642.255V68.736H631.119V78H625.983ZM674.367 74.064C674.527 74.064 674.831 74.016 675.279 73.92V78.24C674.703 78.4 674.031 78.48 673.263 78.48C670.575 78.48 668.879 77.456 668.175 75.408C666.479 77.456 664.015 78.48 660.783 78.48C658.319 78.48 656.319 77.872 654.783 76.656C653.247 75.408 652.479 73.696 652.479 71.52C652.479 69.408 653.199 67.76 654.639 66.576C656.079 65.392 657.935 64.688 660.207 64.464L667.887 63.648V63.216C667.887 61.712 667.423 60.544 666.495 59.712C665.567 58.848 664.367 58.416 662.895 58.416C661.679 58.416 660.639 58.72 659.775 59.328C658.943 59.936 658.383 60.8 658.095 61.92L653.535 61.104C654.015 58.8 655.135 57.088 656.895 55.968C658.655 54.848 660.751 54.288 663.183 54.288C666.223 54.288 668.623 55.056 670.383 56.592C672.143 58.128 673.023 60.304 673.023 63.12V72.72C673.023 73.616 673.471 74.064 674.367 74.064ZM662.319 74.544C664.047 74.416 665.407 73.84 666.399 72.816C667.391 71.792 667.887 70.368 667.887 68.544V67.536L661.215 68.304C658.783 68.624 657.567 69.696 657.567 71.52C657.567 72.576 658.031 73.36 658.959 73.872C659.887 74.384 661.007 74.608 662.319 74.544ZM701.508 78.48C698.084 78.48 695.236 77.376 692.964 75.168C690.724 72.928 689.604 70.016 689.604 66.432C689.604 62.88 690.724 59.968 692.964 57.696C695.236 55.424 698.084 54.288 701.508 54.288C704.1 54.288 706.388 54.928 708.372 56.208C710.356 57.456 711.62 59.216 712.164 61.488L707.652 62.928C707.364 61.712 706.676 60.736 705.588 60C704.5 59.264 703.22 58.896 701.748 58.896C699.764 58.896 698.116 59.584 696.804 60.96C695.524 62.336 694.884 64.144 694.884 66.384C694.884 68.624 695.54 70.432 696.852 71.808C698.164 73.184 699.812 73.872 701.796 73.872C703.236 73.872 704.5 73.504 705.588 72.768C706.676 72.032 707.364 71.04 707.652 69.792L712.164 71.232C711.62 73.536 710.356 75.328 708.372 76.608C706.388 77.856 704.1 78.48 701.508 78.48ZM737.133 74.064C737.293 74.064 737.597 74.016 738.045 73.92V78.24C737.469 78.4 736.797 78.48 736.029 78.48C733.341 78.48 731.645 77.456 730.941 75.408C729.245 77.456 726.781 78.48 723.549 78.48C721.085 78.48 719.085 77.872 717.549 76.656C716.013 75.408 715.245 73.696 715.245 71.52C715.245 69.408 715.965 67.76 717.405 66.576C718.845 65.392 720.701 64.688 722.973 64.464L730.653 63.648V63.216C730.653 61.712 730.189 60.544 729.261 59.712C728.333 58.848 727.133 58.416 725.661 58.416C724.445 58.416 723.405 58.72 722.541 59.328C721.709 59.936 721.149 60.8 720.861 61.92L716.301 61.104C716.781 58.8 717.901 57.088 719.661 55.968C721.421 54.848 723.517 54.288 725.949 54.288C728.989 54.288 731.389 55.056 733.149 56.592C734.909 58.128 735.789 60.304 735.789 63.12V72.72C735.789 73.616 736.237 74.064 737.133 74.064ZM725.085 74.544C726.813 74.416 728.173 73.84 729.165 72.816C730.157 71.792 730.653 70.368 730.653 68.544V67.536L723.981 68.304C721.549 68.624 720.333 69.696 720.333 71.52C720.333 72.576 720.797 73.36 721.725 73.872C722.653 74.384 723.773 74.608 725.085 74.544ZM758.688 49.296C757.376 50.608 755.648 51.264 753.504 51.264C751.36 51.264 749.632 50.608 748.32 49.296C747.008 47.984 746.352 46.256 746.352 44.112H750.096C750.096 45.264 750.4 46.192 751.008 46.896C751.648 47.6 752.48 47.952 753.504 47.952C754.528 47.952 755.36 47.6 756 46.896C756.64 46.192 756.96 45.264 756.96 44.112H760.704C760.704 46.256 760.032 47.984 758.688 49.296ZM742.608 78V54.768H747.744V69.552L759.936 54.768H764.352V78H759.216V63.216L747.024 78H742.608ZM775.961 78V59.328H768.281V54.768H788.729V59.328H781.097V78H775.961ZM802.618 78.48C799.194 78.48 796.346 77.376 794.074 75.168C791.834 72.928 790.714 70 790.714 66.384C790.714 62.8 791.834 59.888 794.074 57.648C796.314 55.408 799.13 54.288 802.522 54.288C805.85 54.288 808.57 55.36 810.682 57.504C812.826 59.616 813.898 62.416 813.898 65.904C813.898 66.416 813.866 66.96 813.802 67.536H795.85C796.042 69.68 796.746 71.36 797.962 72.576C799.178 73.76 800.73 74.352 802.618 74.352C804.09 74.352 805.354 73.984 806.41 73.248C807.498 72.512 808.17 71.472 808.426 70.128L812.938 71.472C812.33 73.744 811.082 75.488 809.194 76.704C807.338 77.888 805.146 78.48 802.618 78.48ZM796.138 63.6H808.906C808.682 62.128 807.994 60.912 806.842 59.952C805.69 58.96 804.266 58.464 802.57 58.464C801.002 58.464 799.642 58.912 798.49 59.808C797.338 60.704 796.554 61.968 796.138 63.6Z" fill="#234D97"/>
<path d="M526.208 164.48C521.408 164.48 517.408 162.864 514.208 159.632C511.04 156.4 509.456 152.24 509.456 147.152C509.456 142.032 511.04 137.888 514.208 134.72C517.376 131.52 521.376 129.92 526.208 129.92C529.984 129.92 533.264 130.848 536.048 132.704C538.864 134.528 540.688 137.056 541.52 140.288L536.384 141.872C535.872 139.856 534.688 138.208 532.832 136.928C530.976 135.648 528.768 135.008 526.208 135.008C522.944 135.008 520.256 136.128 518.144 138.368C516.032 140.608 514.976 143.536 514.976 147.152C514.976 150.8 516.032 153.76 518.144 156.032C520.256 158.272 522.944 159.392 526.208 159.392C528.768 159.392 530.976 158.752 532.832 157.472C534.688 156.192 535.888 154.544 536.432 152.528L541.52 154.112C540.688 157.344 538.864 159.888 536.048 161.744C533.264 163.568 529.984 164.48 526.208 164.48ZM565.395 161.168C563.059 163.376 560.131 164.48 556.611 164.48C553.091 164.48 550.163 163.376 547.827 161.168C545.491 158.928 544.323 156.032 544.323 152.48C544.323 148.832 545.475 145.888 547.779 143.648C550.115 141.408 553.059 140.288 556.611 140.288C560.131 140.288 563.059 141.408 565.395 143.648C567.731 145.888 568.899 148.832 568.899 152.48C568.899 156.032 567.731 158.928 565.395 161.168ZM556.611 159.872C558.595 159.872 560.259 159.2 561.603 157.856C562.947 156.48 563.619 154.672 563.619 152.432C563.619 150.128 562.947 148.304 561.603 146.96C560.291 145.584 558.627 144.896 556.611 144.896C554.595 144.896 552.915 145.584 551.571 146.96C550.259 148.304 549.603 150.128 549.603 152.432C549.603 154.672 550.259 156.48 551.571 157.856C552.915 159.2 554.595 159.872 556.611 159.872ZM582.048 164.48C579.456 164.48 577.248 163.872 575.424 162.656C573.632 161.408 572.48 159.728 571.968 157.616L576.576 156.368C576.832 157.424 577.424 158.272 578.352 158.912C579.312 159.552 580.448 159.872 581.76 159.872C583.008 159.872 584.048 159.6 584.88 159.056C585.712 158.48 586.128 157.76 586.128 156.896C586.128 156.032 585.68 155.344 584.784 154.832C583.92 154.288 582.768 154.016 581.328 154.016H578.256V150.08H581.328C582.672 150.08 583.744 149.856 584.544 149.408C585.376 148.928 585.792 148.304 585.792 147.536C585.792 146.768 585.392 146.144 584.592 145.664C583.824 145.152 582.848 144.896 581.664 144.896C580.352 144.896 579.248 145.2 578.352 145.808C577.456 146.416 576.864 147.216 576.576 148.208L571.968 146.96C572.48 144.944 573.6 143.328 575.328 142.112C577.056 140.896 579.2 140.288 581.76 140.288C584.448 140.288 586.672 140.944 588.432 142.256C590.192 143.536 591.072 145.152 591.072 147.104C591.072 149.344 589.984 151.008 587.808 152.096C590.24 153.28 591.456 155.088 591.456 157.52C591.456 159.504 590.576 161.168 588.816 162.512C587.056 163.824 584.8 164.48 582.048 164.48ZM596.483 164V140.768H609.011C611.411 140.768 613.235 141.296 614.483 142.352C615.731 143.408 616.355 144.896 616.355 146.816C616.355 149.152 615.427 150.72 613.571 151.52C615.939 152.384 617.123 154.24 617.123 157.088C617.123 161.696 614.419 164 609.011 164H596.483ZM601.379 149.648H608.723C610.547 149.648 611.459 148.816 611.459 147.152C611.459 145.616 610.547 144.848 608.723 144.848H601.379V149.648ZM601.379 159.92H608.771C611.075 159.92 612.227 158.864 612.227 156.752C612.227 154.768 611.075 153.776 608.771 153.776H601.379V159.92ZM643.039 160.064C643.199 160.064 643.503 160.016 643.951 159.92V164.24C643.375 164.4 642.703 164.48 641.935 164.48C639.247 164.48 637.551 163.456 636.847 161.408C635.151 163.456 632.687 164.48 629.455 164.48C626.991 164.48 624.991 163.872 623.455 162.656C621.919 161.408 621.151 159.696 621.151 157.52C621.151 155.408 621.871 153.76 623.311 152.576C624.751 151.392 626.607 150.688 628.879 150.464L636.559 149.648V149.216C636.559 147.712 636.095 146.544 635.167 145.712C634.239 144.848 633.039 144.416 631.567 144.416C630.351 144.416 629.311 144.72 628.447 145.328C627.615 145.936 627.055 146.8 626.767 147.92L622.207 147.104C622.687 144.8 623.807 143.088 625.567 141.968C627.327 140.848 629.423 140.288 631.855 140.288C634.895 140.288 637.295 141.056 639.055 142.592C640.815 144.128 641.695 146.304 641.695 149.12V158.72C641.695 159.616 642.143 160.064 643.039 160.064ZM630.991 160.544C632.719 160.416 634.079 159.84 635.071 158.816C636.063 157.792 636.559 156.368 636.559 154.544V153.536L629.887 154.304C627.455 154.624 626.239 155.696 626.239 157.52C626.239 158.576 626.703 159.36 627.631 159.872C628.559 160.384 629.679 160.608 630.991 160.544ZM648.514 164V140.768H653.65V150.176H664.786V140.768H669.922V164H664.786V154.736H653.65V164H648.514ZM676.498 164V140.768H681.634V155.552L693.826 140.768H698.242V164H693.106V149.216L680.914 164H676.498ZM704.764 164V140.768H717.292C719.692 140.768 721.516 141.296 722.764 142.352C724.012 143.408 724.636 144.896 724.636 146.816C724.636 149.152 723.708 150.72 721.852 151.52C724.22 152.384 725.404 154.24 725.404 157.088C725.404 161.696 722.7 164 717.292 164H704.764ZM709.66 149.648H717.004C718.828 149.648 719.74 148.816 719.74 147.152C719.74 145.616 718.828 144.848 717.004 144.848H709.66V149.648ZM709.66 159.92H717.052C719.356 159.92 720.508 158.864 720.508 156.752C720.508 154.768 719.356 153.776 717.052 153.776H709.66V159.92ZM751.32 160.064C751.48 160.064 751.784 160.016 752.232 159.92V164.24C751.656 164.4 750.984 164.48 750.216 164.48C747.528 164.48 745.832 163.456 745.128 161.408C743.432 163.456 740.968 164.48 737.736 164.48C735.272 164.48 733.272 163.872 731.736 162.656C730.2 161.408 729.432 159.696 729.432 157.52C729.432 155.408 730.152 153.76 731.592 152.576C733.032 151.392 734.888 150.688 737.16 150.464L744.84 149.648V149.216C744.84 147.712 744.376 146.544 743.448 145.712C742.52 144.848 741.32 144.416 739.848 144.416C738.632 144.416 737.592 144.72 736.728 145.328C735.896 145.936 735.336 146.8 735.048 147.92L730.488 147.104C730.968 144.8 732.088 143.088 733.848 141.968C735.608 140.848 737.704 140.288 740.136 140.288C743.176 140.288 745.576 141.056 747.336 142.592C749.096 144.128 749.976 146.304 749.976 149.12V158.72C749.976 159.616 750.424 160.064 751.32 160.064ZM739.272 160.544C741 160.416 742.36 159.84 743.352 158.816C744.344 157.792 744.84 156.368 744.84 154.544V153.536L738.168 154.304C735.736 154.624 734.52 155.696 734.52 157.52C734.52 158.576 734.984 159.36 735.912 159.872C736.84 160.384 737.96 160.608 739.272 160.544ZM767.211 164.48C763.787 164.48 760.939 163.376 758.667 161.168C756.427 158.928 755.307 156 755.307 152.384C755.307 148.8 756.427 145.888 758.667 143.648C760.907 141.408 763.723 140.288 767.115 140.288C770.443 140.288 773.163 141.36 775.275 143.504C777.419 145.616 778.491 148.416 778.491 151.904C778.491 152.416 778.459 152.96 778.395 153.536H760.443C760.635 155.68 761.339 157.36 762.555 158.576C763.771 159.76 765.323 160.352 767.211 160.352C768.683 160.352 769.947 159.984 771.003 159.248C772.091 158.512 772.763 157.472 773.019 156.128L777.531 157.472C776.923 159.744 775.675 161.488 773.787 162.704C771.931 163.888 769.739 164.48 767.211 164.48ZM760.731 149.6H773.499C773.275 148.128 772.587 146.912 771.435 145.952C770.283 144.96 768.859 144.464 767.163 144.464C765.595 144.464 764.235 144.912 763.083 145.808C761.931 146.704 761.147 147.968 760.731 149.6ZM806.074 140.768H811.306V164H806.17V150.608L799.21 164H795.658L788.65 150.512V164H783.514V140.768H788.794L797.434 157.568L806.074 140.768ZM828.289 164.48C824.865 164.48 822.017 163.376 819.745 161.168C817.505 158.928 816.385 156.016 816.385 152.432C816.385 148.88 817.505 145.968 819.745 143.696C822.017 141.424 824.865 140.288 828.289 140.288C830.881 140.288 833.169 140.928 835.153 142.208C837.137 143.456 838.401 145.216 838.945 147.488L834.433 148.928C834.145 147.712 833.457 146.736 832.369 146C831.281 145.264 830.001 144.896 828.529 144.896C826.545 144.896 824.897 145.584 823.585 146.96C822.305 148.336 821.665 150.144 821.665 152.384C821.665 154.624 822.321 156.432 823.633 157.808C824.945 159.184 826.593 159.872 828.577 159.872C830.017 159.872 831.281 159.504 832.369 158.768C833.457 158.032 834.145 157.04 834.433 155.792L838.945 157.232C838.401 159.536 837.137 161.328 835.153 162.608C833.169 163.856 830.881 164.48 828.289 164.48ZM841.498 164L846.538 156.128C845.034 155.52 843.85 154.56 842.986 153.248C842.154 151.936 841.738 150.448 841.738 148.784C841.738 146.224 842.506 144.256 844.042 142.88C845.578 141.472 847.642 140.768 850.234 140.768H862.042V164H857.146V156.848H851.53L847.018 164H841.498ZM850.474 152.288H857.146V145.328H850.474C849.354 145.328 848.426 145.648 847.69 146.288C846.986 146.928 846.634 147.76 846.634 148.784C846.634 149.84 846.986 150.688 847.69 151.328C848.426 151.968 849.354 152.288 850.474 152.288ZM879.842 164V140.768H884.978V155.552L897.17 140.768H901.586V164H896.45V149.216L884.258 164H879.842ZM919.358 164V140.768H940.766V164H935.63V145.328H924.494V164H919.358ZM966.926 161.168C964.59 163.376 961.662 164.48 958.142 164.48C954.622 164.48 951.694 163.376 949.358 161.168C947.022 158.928 945.854 156.032 945.854 152.48C945.854 148.832 947.006 145.888 949.31 143.648C951.646 141.408 954.59 140.288 958.142 140.288C961.662 140.288 964.59 141.408 966.926 143.648C969.262 145.888 970.43 148.832 970.43 152.48C970.43 156.032 969.262 158.928 966.926 161.168ZM958.142 159.872C960.126 159.872 961.79 159.2 963.134 157.856C964.478 156.48 965.15 154.672 965.15 152.432C965.15 150.128 964.478 148.304 963.134 146.96C961.822 145.584 960.158 144.896 958.142 144.896C956.126 144.896 954.446 145.584 953.102 146.96C951.79 148.304 951.134 150.128 951.134 152.432C951.134 154.672 951.79 156.48 953.102 157.856C954.446 159.2 956.126 159.872 958.142 159.872ZM972.22 171.104V159.44H974.476C975.276 159.44 975.964 159.184 976.54 158.672C977.148 158.128 977.5 157.36 977.596 156.368L979.084 140.768H996.844V159.44H999.82V171.104H994.684V164H977.356V171.104H972.22ZM981.916 159.44H991.708V145.328H983.692L982.732 156.608C982.604 157.984 982.332 158.928 981.916 159.44ZM1016.83 140.288C1020.1 140.288 1022.82 141.424 1024.99 143.696C1027.17 145.936 1028.26 148.832 1028.26 152.384C1028.26 155.936 1027.17 158.848 1024.99 161.12C1022.85 163.36 1020.15 164.48 1016.88 164.48C1013.46 164.48 1010.82 163.248 1008.96 160.784V173.6H1003.83V140.768H1008.96V143.936C1010.85 141.504 1013.47 140.288 1016.83 140.288ZM1015.92 159.968C1017.91 159.968 1019.57 159.28 1020.91 157.904C1022.29 156.496 1022.98 154.656 1022.98 152.384C1022.98 150.112 1022.29 148.288 1020.91 146.912C1019.57 145.504 1017.91 144.8 1015.92 144.8C1013.91 144.8 1012.24 145.504 1010.93 146.912C1009.62 148.32 1008.96 150.144 1008.96 152.384C1008.96 154.624 1009.62 156.448 1010.93 157.856C1012.24 159.264 1013.91 159.968 1015.92 159.968ZM1052.89 161.168C1050.56 163.376 1047.63 164.48 1044.11 164.48C1040.59 164.48 1037.66 163.376 1035.33 161.168C1032.99 158.928 1031.82 156.032 1031.82 152.48C1031.82 148.832 1032.97 145.888 1035.28 143.648C1037.61 141.408 1040.56 140.288 1044.11 140.288C1047.63 140.288 1050.56 141.408 1052.89 143.648C1055.23 145.888 1056.4 148.832 1056.4 152.48C1056.4 156.032 1055.23 158.928 1052.89 161.168ZM1044.11 159.872C1046.09 159.872 1047.76 159.2 1049.1 157.856C1050.45 156.48 1051.12 154.672 1051.12 152.432C1051.12 150.128 1050.45 148.304 1049.1 146.96C1047.79 145.584 1046.13 144.896 1044.11 144.896C1042.09 144.896 1040.41 145.584 1039.07 146.96C1037.76 148.304 1037.1 150.128 1037.1 152.432C1037.1 154.672 1037.76 156.48 1039.07 157.856C1040.41 159.2 1042.09 159.872 1044.11 159.872ZM1071.61 164.48C1068.19 164.48 1065.39 163.44 1063.21 161.36C1061.04 159.28 1059.95 156.192 1059.95 152.096C1059.95 150.56 1060.11 148.976 1060.43 147.344C1060.75 145.712 1061.28 144.032 1062.01 142.304C1062.78 140.576 1063.72 138.992 1064.84 137.552C1065.96 136.08 1067.37 134.768 1069.07 133.616C1070.8 132.432 1072.72 131.568 1074.83 131.024L1081.5 129.296V133.856L1076.27 135.296C1073.36 136.096 1071.05 137.248 1069.36 138.752C1067.69 140.256 1066.33 142.544 1065.28 145.616C1067.13 143.184 1069.74 141.968 1073.1 141.968C1076.14 141.968 1078.64 142.992 1080.59 145.04C1082.57 147.056 1083.56 149.712 1083.56 153.008C1083.56 156.496 1082.44 159.28 1080.2 161.36C1077.96 163.44 1075.1 164.48 1071.61 164.48ZM1067.1 158.048C1068.35 159.264 1069.9 159.872 1071.76 159.872C1073.61 159.872 1075.16 159.264 1076.41 158.048C1077.66 156.832 1078.28 155.216 1078.28 153.2C1078.28 151.216 1077.66 149.616 1076.41 148.4C1075.16 147.184 1073.6 146.576 1071.71 146.576C1069.82 146.576 1068.27 147.2 1067.05 148.448C1065.84 149.664 1065.23 151.264 1065.23 153.248C1065.23 155.232 1065.85 156.832 1067.1 158.048ZM1088.62 164V140.768H1093.76V150.176H1104.9V140.768H1110.03V164H1104.9V154.736H1093.76V164H1088.62ZM1136.19 161.168C1133.86 163.376 1130.93 164.48 1127.41 164.48C1123.89 164.48 1120.96 163.376 1118.62 161.168C1116.29 158.928 1115.12 156.032 1115.12 152.48C1115.12 148.832 1116.27 145.888 1118.58 143.648C1120.91 141.408 1123.86 140.288 1127.41 140.288C1130.93 140.288 1133.86 141.408 1136.19 143.648C1138.53 145.888 1139.7 148.832 1139.7 152.48C1139.7 156.032 1138.53 158.928 1136.19 161.168ZM1127.41 159.872C1129.39 159.872 1131.06 159.2 1132.4 157.856C1133.74 156.48 1134.42 154.672 1134.42 152.432C1134.42 150.128 1133.74 148.304 1132.4 146.96C1131.09 145.584 1129.42 144.896 1127.41 144.896C1125.39 144.896 1123.71 145.584 1122.37 146.96C1121.06 148.304 1120.4 150.128 1120.4 152.432C1120.4 154.672 1121.06 156.48 1122.37 157.856C1123.71 159.2 1125.39 159.872 1127.41 159.872ZM644.713 212.12C642.313 214.36 639.305 215.48 635.689 215.48C632.073 215.48 629.049 214.36 626.617 212.12C624.217 209.848 623.017 206.92 623.017 203.336C623.017 199.656 624.217 196.68 626.617 194.408C629.017 192.136 632.041 191 635.689 191C639.305 191 642.313 192.152 644.713 194.456C647.113 196.728 648.313 199.688 648.313 203.336C648.313 206.92 647.113 209.848 644.713 212.12ZM631.465 207.896C632.585 209.016 633.993 209.576 635.689 209.576C637.385 209.576 638.793 209.016 639.913 207.896C641.033 206.744 641.593 205.208 641.593 203.288C641.593 201.304 641.033 199.736 639.913 198.584C638.793 197.432 637.385 196.856 635.689 196.856C633.993 196.856 632.585 197.432 631.465 198.584C630.345 199.736 629.785 201.304 629.785 203.288C629.785 205.208 630.345 206.744 631.465 207.896ZM663.095 215.48C659.543 215.48 656.647 214.376 654.407 212.168C652.199 209.928 651.095 206.792 651.095 202.76C651.095 199.752 651.655 196.824 652.775 193.976C653.895 191.128 655.703 188.536 658.199 186.2C660.727 183.864 663.719 182.296 667.175 181.496L673.319 180.008V185.768L668.855 186.92C666.071 187.624 663.767 188.696 661.943 190.136C660.151 191.544 658.743 193.496 657.719 195.992C659.479 193.848 661.975 192.776 665.207 192.776C668.215 192.776 670.663 193.8 672.551 195.848C674.471 197.864 675.431 200.52 675.431 203.816C675.431 207.368 674.279 210.2 671.975 212.312C669.703 214.424 666.743 215.48 663.095 215.48ZM663.287 209.576C664.823 209.576 666.103 209.08 667.127 208.088C668.183 207.064 668.711 205.736 668.711 204.104C668.711 202.472 668.183 201.16 667.127 200.168C666.103 199.144 664.807 198.632 663.239 198.632C661.671 198.632 660.375 199.144 659.351 200.168C658.359 201.192 657.863 202.52 657.863 204.152C657.863 205.784 658.375 207.096 659.399 208.088C660.423 209.08 661.719 209.576 663.287 209.576ZM690.428 215.48C686.94 215.48 684.028 214.36 681.692 212.12C679.388 209.848 678.236 206.904 678.236 203.288C678.236 199.704 679.388 196.76 681.692 194.456C683.996 192.152 686.908 191 690.428 191C693.148 191 695.532 191.672 697.58 193.016C699.66 194.36 700.972 196.264 701.516 198.728L695.756 200.504C695.532 199.384 694.956 198.504 694.028 197.864C693.1 197.192 692.012 196.856 690.764 196.856C689.1 196.856 687.724 197.448 686.636 198.632C685.548 199.784 685.004 201.32 685.004 203.24C685.004 205.16 685.548 206.696 686.636 207.848C687.724 209 689.1 209.576 690.764 209.576C692.012 209.576 693.1 209.256 694.028 208.616C694.956 207.976 695.532 207.096 695.756 205.976L701.516 207.704C700.972 210.2 699.66 212.12 697.58 213.464C695.532 214.808 693.148 215.48 690.428 215.48ZM722.263 191.48H729.223L714.919 224.6H708.727L712.999 215L702.535 191.48H709.495L715.927 207.224L722.263 191.48ZM729.297 215L736.545 202.856L730.401 191.48H737.121L741.825 200.312H745.569V191.48H752.241V200.312H756.033L760.737 191.48H767.457L761.265 202.856L768.513 215H761.217L756.033 206.072H752.241V215H745.569V206.072H741.825L736.593 215H729.297ZM769.155 222.008V209.24H771.795C772.659 209.24 773.379 208.984 773.955 208.472C774.531 207.96 774.851 207.224 774.915 206.264L776.259 191.48H795.747V209.24H798.675V222.008H792.099V215H775.731V222.008H769.155ZM780.771 209.24H789.171V197.24H782.259L781.491 206.504C781.363 207.752 781.123 208.664 780.771 209.24ZM823.424 209.816C823.552 209.816 823.904 209.752 824.48 209.624V215.144C823.744 215.368 822.912 215.48 821.984 215.48C819.104 215.48 817.184 214.568 816.224 212.744C814.56 214.568 812.144 215.48 808.976 215.48C806.544 215.48 804.56 214.856 803.024 213.608C801.488 212.36 800.72 210.616 800.72 208.376C800.72 206.296 801.424 204.648 802.832 203.432C804.24 202.184 806.096 201.448 808.4 201.224L815.6 200.504V200.024C815.6 198.84 815.216 197.912 814.448 197.24C813.68 196.568 812.704 196.232 811.52 196.232C809.408 196.232 808.096 197.224 807.584 199.208L801.776 198.296C802.192 195.768 803.328 193.928 805.184 192.776C807.072 191.592 809.328 191 811.952 191C815.12 191 817.616 191.768 819.44 193.304C821.264 194.84 822.176 197.032 822.176 199.88V208.52C822.176 209.384 822.592 209.816 823.424 209.816ZM815.6 205.64V204.872L810.176 205.544C809.216 205.64 808.464 205.928 807.92 206.408C807.408 206.856 807.152 207.432 807.152 208.136C807.152 208.968 807.504 209.592 808.208 210.008C808.912 210.424 809.824 210.616 810.944 210.584C812.32 210.52 813.44 210.056 814.304 209.192C815.168 208.328 815.6 207.144 815.6 205.64ZM839.212 215.48C835.66 215.48 832.716 214.36 830.38 212.12C828.044 209.848 826.876 206.888 826.876 203.24C826.876 199.624 828.028 196.68 830.332 194.408C832.668 192.136 835.58 191 839.068 191C842.46 191 845.26 192.072 847.468 194.216C849.676 196.36 850.78 199.176 850.78 202.664C850.78 203.112 850.732 203.816 850.636 204.776H833.5C833.724 206.536 834.348 207.896 835.372 208.856C836.428 209.816 837.708 210.296 839.212 210.296C840.428 210.296 841.484 209.992 842.38 209.384C843.276 208.776 843.836 207.912 844.06 206.792L849.82 208.376C849.212 210.712 847.932 212.488 845.98 213.704C844.06 214.888 841.804 215.48 839.212 215.48ZM833.74 200.36H844.444C844.252 199.208 843.676 198.248 842.716 197.48C841.756 196.68 840.556 196.28 839.116 196.28C836.364 196.28 834.572 197.64 833.74 200.36ZM877.308 191.48H883.692V215H877.308V203.144L871.404 215H867.228L861.276 203.048V215H854.892V191.48H861.324L869.34 206.984L877.308 191.48ZM900.736 215V191.48H913.792C916.32 191.48 918.224 192.04 919.504 193.16C920.784 194.248 921.424 195.784 921.424 197.768C921.424 200.008 920.496 201.544 918.64 202.376C921.04 203.24 922.24 205.08 922.24 207.896C922.24 212.632 919.424 215 913.792 215H900.736ZM906.976 200.264H912.928C914.464 200.264 915.232 199.56 915.232 198.152C915.232 196.84 914.464 196.184 912.928 196.184H906.976V200.264ZM906.976 210.296H912.928C914.976 210.296 916 209.4 916 207.608C916 205.88 914.976 205.016 912.928 205.016H906.976V210.296ZM937.834 215.48C934.346 215.48 931.434 214.36 929.098 212.12C926.794 209.848 925.642 206.904 925.642 203.288C925.642 199.704 926.794 196.76 929.098 194.456C931.402 192.152 934.314 191 937.834 191C940.554 191 942.938 191.672 944.986 193.016C947.066 194.36 948.378 196.264 948.922 198.728L943.162 200.504C942.938 199.384 942.362 198.504 941.434 197.864C940.506 197.192 939.418 196.856 938.17 196.856C936.506 196.856 935.13 197.448 934.042 198.632C932.954 199.784 932.41 201.32 932.41 203.24C932.41 205.16 932.954 206.696 934.042 207.848C935.13 209 936.506 209.576 938.17 209.576C939.418 209.576 940.506 209.256 941.434 208.616C942.362 207.976 942.938 207.096 943.162 205.976L948.922 207.704C948.378 210.2 947.066 212.12 944.986 213.464C942.938 214.808 940.554 215.48 937.834 215.48ZM963.525 215.48C959.973 215.48 957.029 214.36 954.693 212.12C952.357 209.848 951.189 206.888 951.189 203.24C951.189 199.624 952.341 196.68 954.645 194.408C956.981 192.136 959.893 191 963.381 191C966.773 191 969.573 192.072 971.781 194.216C973.989 196.36 975.093 199.176 975.093 202.664C975.093 203.112 975.045 203.816 974.949 204.776H957.813C958.037 206.536 958.661 207.896 959.685 208.856C960.741 209.816 962.021 210.296 963.525 210.296C964.741 210.296 965.797 209.992 966.693 209.384C967.589 208.776 968.149 207.912 968.373 206.792L974.133 208.376C973.525 210.712 972.245 212.488 970.293 213.704C968.373 214.888 966.117 215.48 963.525 215.48ZM958.053 200.36H968.757C968.565 199.208 967.989 198.248 967.029 197.48C966.069 196.68 964.869 196.28 963.429 196.28C960.677 196.28 958.885 197.64 958.053 200.36ZM988.624 222.008V209.24H991.264C992.128 209.24 992.848 208.984 993.424 208.472C994 207.96 994.32 207.224 994.384 206.264L995.728 191.48H1015.22V209.24H1018.14V222.008H1011.57V215H995.2V222.008H988.624ZM1000.24 209.24H1008.64V197.24H1001.73L1000.96 206.504C1000.83 207.752 1000.59 208.664 1000.24 209.24ZM1031.92 215.48C1028.36 215.48 1025.42 214.36 1023.08 212.12C1020.75 209.848 1019.58 206.888 1019.58 203.24C1019.58 199.624 1020.73 196.68 1023.04 194.408C1025.37 192.136 1028.28 191 1031.77 191C1035.16 191 1037.96 192.072 1040.17 194.216C1042.38 196.36 1043.48 199.176 1043.48 202.664C1043.48 203.112 1043.44 203.816 1043.34 204.776H1026.2C1026.43 206.536 1027.05 207.896 1028.08 208.856C1029.13 209.816 1030.41 210.296 1031.92 210.296C1033.13 210.296 1034.19 209.992 1035.08 209.384C1035.98 208.776 1036.54 207.912 1036.76 206.792L1042.52 208.376C1041.92 210.712 1040.64 212.488 1038.68 213.704C1036.76 214.888 1034.51 215.48 1031.92 215.48ZM1026.44 200.36H1037.15C1036.96 199.208 1036.38 198.248 1035.42 197.48C1034.46 196.68 1033.26 196.28 1031.82 196.28C1029.07 196.28 1027.28 197.64 1026.44 200.36ZM1052.78 215V197.24H1045.44V191.48H1066.65V197.24H1059.36V215H1052.78ZM1091.31 209.816C1091.44 209.816 1091.79 209.752 1092.37 209.624V215.144C1091.63 215.368 1090.8 215.48 1089.87 215.48C1086.99 215.48 1085.07 214.568 1084.11 212.744C1082.45 214.568 1080.03 215.48 1076.87 215.48C1074.43 215.48 1072.45 214.856 1070.91 213.608C1069.38 212.36 1068.61 210.616 1068.61 208.376C1068.61 206.296 1069.31 204.648 1070.72 203.432C1072.13 202.184 1073.99 201.448 1076.29 201.224L1083.49 200.504V200.024C1083.49 198.84 1083.11 197.912 1082.34 197.24C1081.57 196.568 1080.59 196.232 1079.41 196.232C1077.3 196.232 1075.99 197.224 1075.47 199.208L1069.67 198.296C1070.08 195.768 1071.22 193.928 1073.07 192.776C1074.96 191.592 1077.22 191 1079.84 191C1083.01 191 1085.51 191.768 1087.33 193.304C1089.15 194.84 1090.07 197.032 1090.07 199.88V208.52C1090.07 209.384 1090.48 209.816 1091.31 209.816ZM1083.49 205.64V204.872L1078.07 205.544C1077.11 205.64 1076.35 205.928 1075.81 206.408C1075.3 206.856 1075.04 207.432 1075.04 208.136C1075.04 208.968 1075.39 209.592 1076.1 210.008C1076.8 210.424 1077.71 210.616 1078.83 210.584C1080.21 210.52 1081.33 210.056 1082.19 209.192C1083.06 208.328 1083.49 207.144 1083.49 205.64ZM1094.97 215.48V209.768H1096.41C1098.68 209.768 1099.9 208.456 1100.06 205.832L1101.16 191.48H1121.66V215H1115.08V197.24H1107.36L1106.64 206.024C1106.38 209.064 1105.37 211.4 1103.61 213.032C1101.88 214.664 1099.48 215.48 1096.41 215.48H1094.97ZM1127.14 215V191.48H1133.72V204.632L1144.61 191.48H1150.28V215H1143.7V201.896L1132.81 215H1127.14Z" fill="#234D97"/>
<path d="M31.214 260.42C28.638 260.42 26.468 259.804 24.704 258.572C22.94 257.34 21.834 255.632 21.386 253.448L25.334 252.188C25.586 253.504 26.216 254.54 27.224 255.296C28.26 256.024 29.534 256.388 31.046 256.388C32.67 256.388 34.056 255.982 35.204 255.17C36.352 254.33 36.926 253.112 36.926 251.516C36.926 249.948 36.338 248.758 35.162 247.946C34.014 247.106 32.558 246.686 30.794 246.686H27.686V243.032H30.794C32.446 243.032 33.804 242.682 34.868 241.982C35.96 241.254 36.506 240.19 36.506 238.79C36.506 237.334 35.946 236.214 34.826 235.43C33.706 234.618 32.376 234.212 30.836 234.212C29.408 234.212 28.19 234.59 27.182 235.346C26.202 236.102 25.586 237.124 25.334 238.412L21.386 237.152C21.862 234.94 22.968 233.232 24.704 232.028C26.44 230.796 28.568 230.18 31.088 230.18C34 230.18 36.394 230.964 38.27 232.532C40.146 234.072 41.084 236.13 41.084 238.706C41.084 241.562 39.768 243.634 37.136 244.922C40.048 246.322 41.504 248.59 41.504 251.726C41.504 254.386 40.524 256.5 38.564 258.068C36.632 259.636 34.182 260.42 31.214 260.42ZM65.9716 256.556C66.1116 256.556 66.3776 256.514 66.7696 256.43V260.21C66.2656 260.35 65.6776 260.42 65.0056 260.42C62.6536 260.42 61.1696 259.524 60.5536 257.732C59.0696 259.524 56.9136 260.42 54.0856 260.42C51.9296 260.42 50.1796 259.888 48.8356 258.824C47.4916 257.732 46.8196 256.234 46.8196 254.33C46.8196 252.482 47.4496 251.04 48.7096 250.004C49.9696 248.968 51.5936 248.352 53.5816 248.156L60.3016 247.442V247.064C60.3016 245.748 59.8956 244.726 59.0836 243.998C58.2716 243.242 57.2216 242.864 55.9336 242.864C54.8696 242.864 53.9596 243.13 53.2036 243.662C52.4756 244.194 51.9856 244.95 51.7336 245.93L47.7436 245.216C48.1636 243.2 49.1436 241.702 50.6836 240.722C52.2236 239.742 54.0576 239.252 56.1856 239.252C58.8456 239.252 60.9456 239.924 62.4856 241.268C64.0256 242.612 64.7956 244.516 64.7956 246.98V255.38C64.7956 256.164 65.1876 256.556 65.9716 256.556ZM55.4296 256.976C56.9416 256.864 58.1316 256.36 58.9996 255.464C59.8676 254.568 60.3016 253.322 60.3016 251.726V250.844L54.4636 251.516C52.3356 251.796 51.2716 252.734 51.2716 254.33C51.2716 255.254 51.6776 255.94 52.4896 256.388C53.3016 256.836 54.2816 257.032 55.4296 256.976ZM70.7623 260V239.672H75.2563V247.652H79.0783L83.9503 239.672H88.6543L82.6903 249.458L89.4942 260H84.4543L79.0783 251.642H75.2563V260H70.7623ZM90.2266 260.42V256.43H91.3186C93.4746 256.43 94.6366 255.198 94.8046 252.734L95.7706 239.672H112.739V260H108.245V243.662H100.013L99.2986 252.86C99.1026 255.296 98.3186 257.172 96.9466 258.488C95.6026 259.776 93.7266 260.42 91.3186 260.42H90.2266ZM137.153 260.42C134.493 260.42 132.197 259.678 130.265 258.194C128.333 256.71 127.115 254.722 126.611 252.23H122.957V260H118.463V239.672H122.957V248.24H126.527C126.891 245.524 128.053 243.354 130.013 241.73C131.973 240.078 134.353 239.252 137.153 239.252C140.233 239.252 142.795 240.232 144.839 242.192C146.883 244.152 147.905 246.728 147.905 249.92C147.905 253.028 146.883 255.562 144.839 257.522C142.795 259.454 140.233 260.42 137.153 260.42ZM137.153 256.388C138.889 256.388 140.345 255.8 141.521 254.624C142.697 253.42 143.285 251.838 143.285 249.878C143.285 247.862 142.697 246.266 141.521 245.09C140.373 243.886 138.917 243.284 137.153 243.284C135.389 243.284 133.919 243.886 132.743 245.09C131.595 246.266 131.021 247.862 131.021 249.878C131.021 251.838 131.595 253.42 132.743 254.624C133.919 255.8 135.389 256.388 137.153 256.388ZM164.985 239.672H169.479V260H164.985V252.062C163.585 253.854 161.597 254.75 159.021 254.75C156.669 254.75 154.765 254.078 153.309 252.734C151.853 251.362 151.125 249.444 151.125 246.98V239.672H155.619V245.846C155.619 247.414 156.039 248.604 156.879 249.416C157.747 250.228 158.895 250.634 160.323 250.634C161.723 250.634 162.843 250.158 163.683 249.206C164.551 248.254 164.985 246.938 164.985 245.258V239.672ZM193.079 256.556C193.219 256.556 193.485 256.514 193.877 256.43V260.21C193.373 260.35 192.785 260.42 192.113 260.42C189.761 260.42 188.277 259.524 187.661 257.732C186.177 259.524 184.021 260.42 181.193 260.42C179.037 260.42 177.287 259.888 175.943 258.824C174.599 257.732 173.927 256.234 173.927 254.33C173.927 252.482 174.557 251.04 175.817 250.004C177.077 248.968 178.701 248.352 180.689 248.156L187.409 247.442V247.064C187.409 245.748 187.003 244.726 186.191 243.998C185.379 243.242 184.329 242.864 183.041 242.864C181.977 242.864 181.067 243.13 180.311 243.662C179.583 244.194 179.093 244.95 178.841 245.93L174.851 245.216C175.271 243.2 176.251 241.702 177.791 240.722C179.331 239.742 181.165 239.252 183.293 239.252C185.953 239.252 188.053 239.924 189.593 241.268C191.133 242.612 191.903 244.516 191.903 246.98V255.38C191.903 256.164 192.295 256.556 193.079 256.556ZM182.537 256.976C184.049 256.864 185.239 256.36 186.107 255.464C186.975 254.568 187.409 253.322 187.409 251.726V250.844L181.571 251.516C179.443 251.796 178.379 252.734 178.379 254.33C178.379 255.254 178.785 255.94 179.597 256.388C180.409 256.836 181.389 257.032 182.537 256.976ZM206.984 260.42C203.988 260.42 201.496 259.454 199.508 257.522C197.548 255.562 196.568 253 196.568 249.836C196.568 246.7 197.548 244.152 199.508 242.192C201.468 240.232 203.932 239.252 206.9 239.252C209.812 239.252 212.192 240.19 214.04 242.066C215.916 243.914 216.854 246.364 216.854 249.416C216.854 249.864 216.826 250.34 216.77 250.844H201.062C201.23 252.72 201.846 254.19 202.91 255.254C203.974 256.29 205.332 256.808 206.984 256.808C208.272 256.808 209.378 256.486 210.302 255.842C211.254 255.198 211.842 254.288 212.066 253.112L216.014 254.288C215.482 256.276 214.39 257.802 212.738 258.866C211.114 259.902 209.196 260.42 206.984 260.42ZM201.314 247.4H212.486C212.29 246.112 211.688 245.048 210.68 244.208C209.672 243.34 208.426 242.906 206.942 242.906C205.57 242.906 204.38 243.298 203.372 244.082C202.364 244.866 201.678 245.972 201.314 247.4ZM240.989 239.672H245.567V260H241.073V248.282L234.983 260H231.875L225.743 248.198V260H221.249V239.672H225.869L233.429 254.372L240.989 239.672ZM258.931 266.216V256.01H260.905C261.605 256.01 262.207 255.786 262.711 255.338C263.243 254.862 263.551 254.19 263.635 253.322L264.937 239.672H280.477V256.01H283.081V266.216H278.587V260H263.425V266.216H258.931ZM267.415 256.01H275.983V243.662H268.969L268.129 253.532C268.017 254.736 267.779 255.562 267.415 256.01ZM303.107 257.522C301.063 259.454 298.501 260.42 295.421 260.42C292.341 260.42 289.779 259.454 287.735 257.522C285.691 255.562 284.669 253.028 284.669 249.92C284.669 246.728 285.677 244.152 287.693 242.192C289.737 240.232 292.313 239.252 295.421 239.252C298.501 239.252 301.063 240.232 303.107 242.192C305.151 244.152 306.173 246.728 306.173 249.92C306.173 253.028 305.151 255.562 303.107 257.522ZM295.421 256.388C297.157 256.388 298.613 255.8 299.789 254.624C300.965 253.42 301.553 251.838 301.553 249.878C301.553 247.862 300.965 246.266 299.789 245.09C298.641 243.886 297.185 243.284 295.421 243.284C293.657 243.284 292.187 243.886 291.011 245.09C289.863 246.266 289.289 247.862 289.289 249.878C289.289 251.838 289.863 253.42 291.011 254.624C292.187 255.8 293.657 256.388 295.421 256.388ZM310.581 260V239.672H325.029V243.662H315.075V260H310.581ZM344.533 257.522C342.489 259.454 339.927 260.42 336.847 260.42C333.767 260.42 331.205 259.454 329.161 257.522C327.117 255.562 326.095 253.028 326.095 249.92C326.095 246.728 327.103 244.152 329.119 242.192C331.163 240.232 333.739 239.252 336.847 239.252C339.927 239.252 342.489 240.232 344.533 242.192C346.577 244.152 347.599 246.728 347.599 249.92C347.599 253.028 346.577 255.562 344.533 257.522ZM336.847 256.388C338.583 256.388 340.039 255.8 341.215 254.624C342.391 253.42 342.979 251.838 342.979 249.878C342.979 247.862 342.391 246.266 341.215 245.09C340.067 243.886 338.611 243.284 336.847 243.284C335.083 243.284 333.613 243.886 332.437 245.09C331.289 246.266 330.715 247.862 330.715 249.878C330.715 251.838 331.289 253.42 332.437 254.624C333.613 255.8 335.083 256.388 336.847 256.388ZM352.006 260V239.672H362.968C365.068 239.672 366.664 240.134 367.756 241.058C368.848 241.982 369.394 243.284 369.394 244.964C369.394 247.008 368.582 248.38 366.958 249.08C369.03 249.836 370.066 251.46 370.066 253.952C370.066 257.984 367.7 260 362.968 260H352.006ZM356.29 247.442H362.716C364.312 247.442 365.11 246.714 365.11 245.258C365.11 243.914 364.312 243.242 362.716 243.242H356.29V247.442ZM356.29 256.43H362.758C364.774 256.43 365.782 255.506 365.782 253.658C365.782 251.922 364.774 251.054 362.758 251.054H356.29V256.43ZM392.029 257.522C389.985 259.454 387.423 260.42 384.343 260.42C381.263 260.42 378.701 259.454 376.657 257.522C374.613 255.562 373.591 253.028 373.591 249.92C373.591 246.728 374.599 244.152 376.615 242.192C378.659 240.232 381.235 239.252 384.343 239.252C387.423 239.252 389.985 240.232 392.029 242.192C394.073 244.152 395.095 246.728 395.095 249.92C395.095 253.028 394.073 255.562 392.029 257.522ZM384.343 256.388C386.079 256.388 387.535 255.8 388.711 254.624C389.887 253.42 390.475 251.838 390.475 249.878C390.475 247.862 389.887 246.266 388.711 245.09C387.563 243.886 386.107 243.284 384.343 243.284C382.579 243.284 381.109 243.886 379.933 245.09C378.785 246.266 378.211 247.862 378.211 249.878C378.211 251.838 378.785 253.42 379.933 254.624C381.109 255.8 382.579 256.388 384.343 256.388ZM410.884 239.252C413.74 239.252 416.12 240.246 418.024 242.234C419.928 244.194 420.88 246.728 420.88 249.836C420.88 252.944 419.928 255.492 418.024 257.48C416.148 259.44 413.782 260.42 410.926 260.42C407.93 260.42 405.62 259.342 403.996 257.186V268.4H399.502V239.672H403.996V242.444C405.648 240.316 407.944 239.252 410.884 239.252ZM410.086 256.472C411.822 256.472 413.278 255.87 414.454 254.666C415.658 253.434 416.26 251.824 416.26 249.836C416.26 247.848 415.658 246.252 414.454 245.048C413.278 243.816 411.822 243.2 410.086 243.2C408.322 243.2 406.866 243.816 405.718 245.048C404.57 246.28 403.996 247.876 403.996 249.836C403.996 251.796 404.57 253.392 405.718 254.624C406.866 255.856 408.322 256.472 410.086 256.472ZM22.394 305V284.42H28.148V295.928L37.682 284.42H42.638V305H36.884V293.534L27.35 305H22.394ZM57.5034 305V284.42H77.3694V305H71.6154V289.46H63.2574V305H57.5034ZM94.3328 284C97.1888 284 99.5828 285.008 101.515 287.024C103.475 289.012 104.455 291.574 104.455 294.71C104.455 297.818 103.489 300.38 101.557 302.396C99.6248 304.412 97.2308 305.42 94.3748 305.42C91.6308 305.42 89.4888 304.538 87.9488 302.774V313.4H82.1948V284.42H87.9488V286.604C89.5168 284.868 91.6448 284 94.3328 284ZM89.4188 298.868C90.4268 299.904 91.6868 300.422 93.1988 300.422C94.7108 300.422 95.9708 299.904 96.9788 298.868C97.9868 297.804 98.4908 296.418 98.4908 294.71C98.4908 292.974 97.9868 291.588 96.9788 290.552C95.9708 289.516 94.7108 288.998 93.1988 288.998C91.6868 288.998 90.4268 289.53 89.4188 290.594C88.4388 291.63 87.9488 293.002 87.9488 294.71C87.9488 296.418 88.4388 297.804 89.4188 298.868ZM108.076 305V284.42H113.83V295.928L123.364 284.42H128.32V305H122.566V293.534L113.032 305H108.076ZM142.587 305.42C139.535 305.42 136.987 304.44 134.943 302.48C132.927 300.492 131.919 297.916 131.919 294.752C131.919 291.616 132.927 289.04 134.943 287.024C136.959 285.008 139.507 284 142.587 284C144.967 284 147.053 284.588 148.845 285.764C150.665 286.94 151.813 288.606 152.289 290.762L147.249 292.316C147.053 291.336 146.549 290.566 145.737 290.006C144.925 289.418 143.973 289.124 142.881 289.124C141.425 289.124 140.221 289.642 139.269 290.678C138.317 291.686 137.841 293.03 137.841 294.71C137.841 296.39 138.317 297.734 139.269 298.742C140.221 299.75 141.425 300.254 142.881 300.254C143.973 300.254 144.925 299.974 145.737 299.414C146.549 298.854 147.053 298.084 147.249 297.104L152.289 298.616C151.813 300.8 150.665 302.48 148.845 303.656C147.053 304.832 144.967 305.42 142.587 305.42ZM159.985 305V289.46H153.559V284.42H172.123V289.46H165.739V305H159.985ZM190.007 284.42H196.097L183.581 313.4H178.163L181.901 305L172.745 284.42H178.835L184.463 298.196L190.007 284.42ZM198.556 305V284.42H218.422V305H212.668V289.46H204.31V305H198.556ZM241.938 300.464C242.05 300.464 242.358 300.408 242.862 300.296V305.126C242.218 305.322 241.49 305.42 240.678 305.42C238.158 305.42 236.478 304.622 235.638 303.026C234.182 304.622 232.068 305.42 229.296 305.42C227.168 305.42 225.432 304.874 224.088 303.782C222.744 302.69 222.072 301.164 222.072 299.204C222.072 297.384 222.688 295.942 223.92 294.878C225.152 293.786 226.776 293.142 228.792 292.946L235.092 292.316V291.896C235.092 290.86 234.756 290.048 234.084 289.46C233.412 288.872 232.558 288.578 231.522 288.578C229.674 288.578 228.526 289.446 228.078 291.182L222.996 290.384C223.36 288.172 224.354 286.562 225.978 285.554C227.63 284.518 229.604 284 231.9 284C234.672 284 236.856 284.672 238.452 286.016C240.048 287.36 240.846 289.278 240.846 291.77V299.33C240.846 300.086 241.21 300.464 241.938 300.464ZM235.092 296.81V296.138L230.346 296.726C229.506 296.81 228.848 297.062 228.372 297.482C227.924 297.874 227.7 298.378 227.7 298.994C227.7 299.722 228.008 300.268 228.624 300.632C229.24 300.996 230.038 301.164 231.018 301.136C232.222 301.08 233.202 300.674 233.958 299.918C234.714 299.162 235.092 298.126 235.092 296.81ZM255.752 305.42C252.644 305.42 250.068 304.44 248.024 302.48C245.98 300.492 244.958 297.902 244.958 294.71C244.958 291.546 245.966 288.97 247.982 286.982C250.026 284.994 252.574 284 255.626 284C258.594 284 261.044 284.938 262.976 286.814C264.908 288.69 265.874 291.154 265.874 294.206C265.874 294.598 265.832 295.214 265.748 296.054H250.754C250.95 297.594 251.496 298.784 252.392 299.624C253.316 300.464 254.436 300.884 255.752 300.884C256.816 300.884 257.74 300.618 258.524 300.086C259.308 299.554 259.798 298.798 259.994 297.818L265.034 299.204C264.502 301.248 263.382 302.802 261.674 303.866C259.994 304.902 258.02 305.42 255.752 305.42ZM250.964 292.19H260.33C260.162 291.182 259.658 290.342 258.818 289.67C257.978 288.97 256.928 288.62 255.668 288.62C253.26 288.62 251.692 289.81 250.964 292.19ZM289.086 284.42H294.672V305H289.086V294.626L283.92 305H280.266L275.058 294.542V305H269.472V284.42H275.1L282.114 297.986L289.086 284.42ZM309.585 305V284.42H315.339V292.148H318.615L322.857 284.42H328.737L323.319 294.374L329.661 305H323.277L318.615 297.188H315.339V305H309.585ZM354.331 284C357.187 284 359.581 285.008 361.513 287.024C363.473 289.012 364.453 291.574 364.453 294.71C364.453 297.818 363.487 300.38 361.555 302.396C359.623 304.412 357.229 305.42 354.373 305.42C351.629 305.42 349.487 304.538 347.947 302.774V313.4H342.193V284.42H347.947V286.604C349.515 284.868 351.643 284 354.331 284ZM349.417 298.868C350.425 299.904 351.685 300.422 353.197 300.422C354.709 300.422 355.969 299.904 356.977 298.868C357.985 297.804 358.489 296.418 358.489 294.71C358.489 292.974 357.985 291.588 356.977 290.552C355.969 289.516 354.709 288.998 353.197 288.998C351.685 288.998 350.425 289.53 349.417 290.594C348.437 291.63 347.947 293.002 347.947 294.71C347.947 296.418 348.437 297.804 349.417 298.868ZM386.764 300.464C386.876 300.464 387.184 300.408 387.688 300.296V305.126C387.044 305.322 386.316 305.42 385.504 305.42C382.984 305.42 381.304 304.622 380.464 303.026C379.008 304.622 376.894 305.42 374.122 305.42C371.994 305.42 370.258 304.874 368.914 303.782C367.57 302.69 366.898 301.164 366.898 299.204C366.898 297.384 367.514 295.942 368.746 294.878C369.978 293.786 371.602 293.142 373.618 292.946L379.918 292.316V291.896C379.918 290.86 379.582 290.048 378.91 289.46C378.238 288.872 377.384 288.578 376.348 288.578C374.5 288.578 373.352 289.446 372.904 291.182L367.822 290.384C368.186 288.172 369.18 286.562 370.804 285.554C372.456 284.518 374.43 284 376.726 284C379.498 284 381.682 284.672 383.278 286.016C384.874 287.36 385.672 289.278 385.672 291.77V299.33C385.672 300.086 386.036 300.464 386.764 300.464ZM379.918 296.81V296.138L375.172 296.726C374.332 296.81 373.674 297.062 373.198 297.482C372.75 297.874 372.526 298.378 372.526 298.994C372.526 299.722 372.834 300.268 373.45 300.632C374.066 300.996 374.864 301.164 375.844 301.136C377.048 301.08 378.028 300.674 378.784 299.918C379.54 299.162 379.918 298.126 379.918 296.81ZM400.284 305.42C397.176 305.42 394.642 304.454 392.682 302.522C390.75 300.562 389.784 297.818 389.784 294.29C389.784 291.658 390.274 289.096 391.254 286.604C392.234 284.112 393.816 281.844 396 279.8C398.212 277.756 400.83 276.384 403.854 275.684L409.23 274.382V279.422L405.324 280.43C402.888 281.046 400.872 281.984 399.276 283.244C397.708 284.476 396.476 286.184 395.58 288.368C397.12 286.492 399.304 285.554 402.132 285.554C404.764 285.554 406.906 286.45 408.558 288.242C410.238 290.006 411.078 292.33 411.078 295.214C411.078 298.322 410.07 300.8 408.054 302.648C406.066 304.496 403.476 305.42 400.284 305.42ZM400.452 300.254C401.796 300.254 402.916 299.82 403.812 298.952C404.736 298.056 405.198 296.894 405.198 295.466C405.198 294.038 404.736 292.89 403.812 292.022C402.916 291.126 401.782 290.678 400.41 290.678C399.038 290.678 397.904 291.126 397.008 292.022C396.14 292.918 395.706 294.08 395.706 295.508C395.706 296.936 396.154 298.084 397.05 298.952C397.946 299.82 399.08 300.254 400.452 300.254ZM432.516 302.48C430.416 304.44 427.784 305.42 424.62 305.42C421.456 305.42 418.81 304.44 416.682 302.48C414.582 300.492 413.532 297.93 413.532 294.794C413.532 291.574 414.582 288.97 416.682 286.982C418.782 284.994 421.428 284 424.62 284C427.784 284 430.416 285.008 432.516 287.024C434.616 289.012 435.666 291.602 435.666 294.794C435.666 297.93 434.616 300.492 432.516 302.48ZM420.924 298.784C421.904 299.764 423.136 300.254 424.62 300.254C426.104 300.254 427.336 299.764 428.316 298.784C429.296 297.776 429.786 296.432 429.786 294.752C429.786 293.016 429.296 291.644 428.316 290.636C427.336 289.628 426.104 289.124 424.62 289.124C423.136 289.124 421.904 289.628 420.924 290.636C419.944 291.644 419.454 293.016 419.454 294.752C419.454 296.432 419.944 297.776 420.924 298.784ZM443.403 305V289.46H436.977V284.42H455.541V289.46H449.157V305H443.403ZM467.639 305.42C464.531 305.42 461.955 304.44 459.911 302.48C457.867 300.492 456.845 297.902 456.845 294.71C456.845 291.546 457.853 288.97 459.869 286.982C461.913 284.994 464.461 284 467.513 284C470.481 284 472.931 284.938 474.863 286.814C476.795 288.69 477.761 291.154 477.761 294.206C477.761 294.598 477.719 295.214 477.635 296.054H462.641C462.837 297.594 463.383 298.784 464.279 299.624C465.203 300.464 466.323 300.884 467.639 300.884C468.703 300.884 469.627 300.618 470.411 300.086C471.195 299.554 471.685 298.798 471.881 297.818L476.921 299.204C476.389 301.248 475.269 302.802 473.561 303.866C471.881 304.902 469.907 305.42 467.639 305.42ZM462.851 292.19H472.217C472.049 291.182 471.545 290.342 470.705 289.67C469.865 288.97 468.815 288.62 467.555 288.62C465.147 288.62 463.579 289.81 462.851 292.19Z" fill="#234D97"/>
<defs>
<filter id="filter0_f_124_6" x="0" y="0" width="130" height="130" filterUnits="userSpaceOnUse" color-interpolation-filters="sRGB">
<feFlood flood-opacity="0" result="BackgroundImageFix"/>
<feBlend mode="normal" in="SourceGraphic" in2="BackgroundImageFix" result="shape"/>
<feGaussianBlur stdDeviation="10" result="effect1_foregroundBlur_124_6"/>
</filter>
<filter id="filter1_f_124_6" x="1167" y="106" width="128" height="128" filterUnits="userSpaceOnUse" color-interpolation-filters="sRGB">
<feFlood flood-opacity="0" result="BackgroundImageFix"/>
<feBlend mode="normal" in="SourceGraphic" in2="BackgroundImageFix" result="shape"/>
<feGaussianBlur stdDeviation="9.5" result="effect1_foregroundBlur_124_6"/>
</filter>
<filter id="filter2_f_124_6" x="506" y="206" width="130" height="130" filterUnits="userSpaceOnUse" color-interpolation-filters="sRGB">
<feFlood flood-opacity="0" result="BackgroundImageFix"/>
<feBlend mode="normal" in="SourceGraphic" in2="BackgroundImageFix" result="shape"/>
<feGaussianBlur stdDeviation="10" result="effect1_foregroundBlur_124_6"/>
</filter>
<linearGradient id="paint0_linear_124_6" x1="933.304" y1="-176.952" x2="776.694" y2="-157.436" gradientUnits="userSpaceOnUse">
<stop stop-color="#234D97"/>
<stop offset="1" stop-color="#234D97" stop-opacity="0"/>
</linearGradient>
<linearGradient id="paint1_linear_124_6" x1="185.304" y1="-92.9522" x2="28.6937" y2="-73.4363" gradientUnits="userSpaceOnUse">
<stop stop-color="#234D97"/>
<stop offset="1" stop-color="#234D97" stop-opacity="0"/>
</linearGradient>
<linearGradient id="paint2_linear_124_6" x1="1128.23" y1="514.952" x2="1388.69" y2="459.377" gradientUnits="userSpaceOnUse">
<stop stop-color="#234D97"/>
<stop offset="1" stop-color="#234D97" stop-opacity="0"/>
</linearGradient>
<linearGradient id="paint3_linear_124_6" x1="65" y1="20" x2="65" y2="308" gradientUnits="userSpaceOnUse">
<stop stop-color="#8AC1F0"/>
<stop offset="1" stop-color="#7058D0"/>
</linearGradient>
<linearGradient id="paint4_linear_124_6" x1="1231" y1="125" x2="1231" y2="215" gradientUnits="userSpaceOnUse">
<stop stop-color="#8AC1F0"/>
<stop offset="1" stop-color="#7058D0"/>
</linearGradient>
<linearGradient id="paint5_linear_124_6" x1="571" y1="226" x2="571" y2="316" gradientUnits="userSpaceOnUse">
<stop stop-color="#7058D0"/>
<stop offset="1" stop-color="#234D97"/>
</linearGradient>
</defs>
</svg>
