<svg width="18" height="18" viewBox="0 0 18 18" fill="none" xmlns="http://www.w3.org/2000/svg">
<path d="M16.2015 0.30858L9 7.51004L1.79854 0.30858C1.3871 -0.10286 0.720021 -0.10286 0.30858 0.30858C-0.10286 0.720021 -0.10286 1.3871 0.30858 1.79854L7.51004 9L0.30858 16.2015C-0.10286 16.6129 -0.10286 17.28 0.30858 17.6914C0.720021 18.1029 1.3871 18.1029 1.79854 17.6914L9 10.49L16.2015 17.6914C16.6129 18.1029 17.28 18.1029 17.6914 17.6914C18.1029 17.28 18.1029 16.6129 17.6914 16.2015L10.49 9L17.6914 1.79854C18.1029 1.3871 18.1029 0.720021 17.6914 0.30858C17.28 -0.10286 16.6129 -0.10286 16.2015 0.30858Z" fill="white"/>
</svg>
