<svg width="597" height="321" viewBox="0 0 597 321" fill="none" xmlns="http://www.w3.org/2000/svg">
<path d="M0 75C0 33.5786 33.5786 0 75 0L597 0V321L75 321C33.5786 321 0 287.421 0 246L0 75Z" fill="url(#paint0_linear_7_476)"/>
<path d="M55.8671 121V87.4H62.6351V101.272H66.3311L74.8271 87.4H82.8431L72.4751 103.816L83.4191 121H74.9711L66.3311 107.368H62.6351V121H55.8671ZM106.092 118.12C103.692 120.36 100.684 121.48 97.0679 121.48C93.4519 121.48 90.4279 120.36 87.9959 118.12C85.5959 115.848 84.3959 112.92 84.3959 109.336C84.3959 105.656 85.5959 102.68 87.9959 100.408C90.3959 98.136 93.4199 97 97.0679 97C100.684 97 103.692 98.152 106.092 100.456C108.492 102.728 109.692 105.688 109.692 109.336C109.692 112.92 108.492 115.848 106.092 118.12ZM92.8439 113.896C93.9639 115.016 95.3719 115.576 97.0679 115.576C98.7639 115.576 100.172 115.016 101.292 113.896C102.412 112.744 102.972 111.208 102.972 109.288C102.972 107.304 102.412 105.736 101.292 104.584C100.172 103.432 98.7639 102.856 97.0679 102.856C95.3719 102.856 93.9639 103.432 92.8439 104.584C91.7239 105.736 91.1639 107.304 91.1639 109.288C91.1639 111.208 91.7239 112.744 92.8439 113.896ZM114.778 121V97.48H121.354V106.504H130.906V97.48H137.482V121H130.906V112.264H121.354V121H114.778ZM154.805 121.48C151.317 121.48 148.405 120.36 146.069 118.12C143.765 115.848 142.613 112.904 142.613 109.288C142.613 105.704 143.765 102.76 146.069 100.456C148.373 98.152 151.285 97 154.805 97C157.525 97 159.909 97.672 161.957 99.016C164.037 100.36 165.349 102.264 165.893 104.728L160.133 106.504C159.909 105.384 159.333 104.504 158.405 103.864C157.477 103.192 156.389 102.856 155.141 102.856C153.477 102.856 152.101 103.448 151.013 104.632C149.925 105.784 149.381 107.32 149.381 109.24C149.381 111.16 149.925 112.696 151.013 113.848C152.101 115 153.477 115.576 155.141 115.576C156.389 115.576 157.477 115.256 158.405 114.616C159.333 113.976 159.909 113.096 160.133 111.976L165.893 113.704C165.349 116.2 164.037 118.12 161.957 119.464C159.909 120.808 157.525 121.48 154.805 121.48ZM191.824 115.816C191.952 115.816 192.304 115.752 192.88 115.624V121.144C192.144 121.368 191.312 121.48 190.384 121.48C187.504 121.48 185.584 120.568 184.624 118.744C182.96 120.568 180.544 121.48 177.376 121.48C174.944 121.48 172.96 120.856 171.424 119.608C169.888 118.36 169.12 116.616 169.12 114.376C169.12 112.296 169.824 110.648 171.232 109.432C172.64 108.184 174.496 107.448 176.8 107.224L184 106.504V106.024C184 104.84 183.616 103.912 182.848 103.24C182.08 102.568 181.104 102.232 179.92 102.232C177.808 102.232 176.496 103.224 175.984 105.208L170.176 104.296C170.592 101.768 171.728 99.928 173.584 98.776C175.472 97.592 177.728 97 180.352 97C183.52 97 186.016 97.768 187.84 99.304C189.664 100.84 190.576 103.032 190.576 105.88V114.52C190.576 115.384 190.992 115.816 191.824 115.816ZM184 111.64V110.872L178.576 111.544C177.616 111.64 176.864 111.928 176.32 112.408C175.808 112.856 175.552 113.432 175.552 114.136C175.552 114.968 175.904 115.592 176.608 116.008C177.312 116.424 178.224 116.616 179.344 116.584C180.72 116.52 181.84 116.056 182.704 115.192C183.568 114.328 184 113.144 184 111.64ZM196.441 121.48V115.768H197.881C200.153 115.768 201.369 114.456 201.529 111.832L202.633 97.48H223.129V121H216.553V103.24H208.825L208.105 112.024C207.849 115.064 206.841 117.4 205.081 119.032C203.353 120.664 200.953 121.48 197.881 121.48H196.441ZM234.755 121V103.24H227.411V97.48H248.627V103.24H241.331V121H234.755ZM252.891 121V97.48H259.467V110.632L270.363 97.48H276.027V121H269.451V107.896L258.555 121H252.891ZM282.444 121V97.48H289.02V106.504H298.572V97.48H305.148V121H298.572V112.264H289.02V121H282.444ZM311.623 121V97.48H328.951V103.24H318.199V121H311.623Z" fill="white"/>
<path d="M54.4127 243V219.768H75.8207V243H70.6847V224.328H59.5487V243H54.4127ZM102.941 240.168C100.605 242.376 97.6771 243.48 94.1571 243.48C90.6371 243.48 87.7091 242.376 85.3731 240.168C83.0371 237.928 81.8691 235.032 81.8691 231.48C81.8691 227.832 83.0211 224.888 85.3251 222.648C87.6611 220.408 90.6051 219.288 94.1571 219.288C97.6771 219.288 100.605 220.408 102.941 222.648C105.277 224.888 106.445 227.832 106.445 231.48C106.445 235.032 105.277 237.928 102.941 240.168ZM94.1571 238.872C96.1411 238.872 97.8051 238.2 99.1491 236.856C100.493 235.48 101.165 233.672 101.165 231.432C101.165 229.128 100.493 227.304 99.1491 225.96C97.8371 224.584 96.1731 223.896 94.1571 223.896C92.1411 223.896 90.4611 224.584 89.1171 225.96C87.8051 227.304 87.1491 229.128 87.1491 231.432C87.1491 233.672 87.8051 235.48 89.1171 236.856C90.4611 238.2 92.1411 238.872 94.1571 238.872ZM126.938 219.768H132.074V243H126.938V233.928C125.338 235.976 123.066 237 120.122 237C117.434 237 115.258 236.232 113.594 234.696C111.93 233.128 111.098 230.936 111.098 228.12V219.768H116.234V226.824C116.234 228.616 116.714 229.976 117.674 230.904C118.666 231.832 119.978 232.296 121.61 232.296C123.21 232.296 124.49 231.752 125.45 230.664C126.442 229.576 126.938 228.072 126.938 226.152V219.768ZM160.005 239.064C160.165 239.064 160.469 239.016 160.917 238.92V243.24C160.341 243.4 159.669 243.48 158.901 243.48C156.213 243.48 154.517 242.456 153.813 240.408C152.117 242.456 149.653 243.48 146.421 243.48C143.957 243.48 141.957 242.872 140.421 241.656C138.885 240.408 138.117 238.696 138.117 236.52C138.117 234.408 138.837 232.76 140.277 231.576C141.717 230.392 143.573 229.688 145.845 229.464L153.525 228.648V228.216C153.525 226.712 153.061 225.544 152.133 224.712C151.205 223.848 150.005 223.416 148.533 223.416C147.317 223.416 146.277 223.72 145.413 224.328C144.581 224.936 144.021 225.8 143.733 226.92L139.173 226.104C139.653 223.8 140.773 222.088 142.533 220.968C144.293 219.848 146.389 219.288 148.821 219.288C151.861 219.288 154.261 220.056 156.021 221.592C157.781 223.128 158.661 225.304 158.661 228.12V237.72C158.661 238.616 159.109 239.064 160.005 239.064ZM147.957 239.544C149.685 239.416 151.045 238.84 152.037 237.816C153.029 236.792 153.525 235.368 153.525 233.544V232.536L146.853 233.304C144.421 233.624 143.205 234.696 143.205 236.52C143.205 237.576 143.669 238.36 144.597 238.872C145.525 239.384 146.645 239.608 147.957 239.544ZM176.856 243.48C173.432 243.48 170.584 242.376 168.312 240.168C166.072 237.928 164.952 235.016 164.952 231.432C164.952 227.88 166.072 224.968 168.312 222.696C170.584 220.424 173.432 219.288 176.856 219.288C179.448 219.288 181.736 219.928 183.72 221.208C185.704 222.456 186.968 224.216 187.512 226.488L183 227.928C182.712 226.712 182.024 225.736 180.936 225C179.848 224.264 178.568 223.896 177.096 223.896C175.112 223.896 173.464 224.584 172.152 225.96C170.872 227.336 170.232 229.144 170.232 231.384C170.232 233.624 170.888 235.432 172.2 236.808C173.512 238.184 175.16 238.872 177.144 238.872C178.584 238.872 179.848 238.504 180.936 237.768C182.024 237.032 182.712 236.04 183 234.792L187.512 236.232C186.968 238.536 185.704 240.328 183.72 241.608C181.736 242.856 179.448 243.48 176.856 243.48ZM212.625 240.168C210.289 242.376 207.361 243.48 203.841 243.48C200.321 243.48 197.393 242.376 195.057 240.168C192.721 237.928 191.553 235.032 191.553 231.48C191.553 227.832 192.705 224.888 195.009 222.648C197.345 220.408 200.289 219.288 203.841 219.288C207.361 219.288 210.289 220.408 212.625 222.648C214.961 224.888 216.129 227.832 216.129 231.48C216.129 235.032 214.961 237.928 212.625 240.168ZM203.841 238.872C205.825 238.872 207.489 238.2 208.833 236.856C210.177 235.48 210.849 233.672 210.849 231.432C210.849 229.128 210.177 227.304 208.833 225.96C207.521 224.584 205.857 223.896 203.841 223.896C201.825 223.896 200.145 224.584 198.801 225.96C197.489 227.304 196.833 229.128 196.833 231.432C196.833 233.672 197.489 235.48 198.801 236.856C200.145 238.2 201.825 238.872 203.841 238.872ZM222.126 243V219.768H234.654C237.054 219.768 238.878 220.296 240.126 221.352C241.374 222.408 241.998 223.896 241.998 225.816C241.998 228.152 241.07 229.72 239.214 230.52C241.582 231.384 242.766 233.24 242.766 236.088C242.766 240.696 240.062 243 234.654 243H222.126ZM227.022 228.648H234.366C236.19 228.648 237.102 227.816 237.102 226.152C237.102 224.616 236.19 223.848 234.366 223.848H227.022V228.648ZM227.022 238.92H234.414C236.718 238.92 237.87 237.864 237.87 235.752C237.87 233.768 236.718 232.776 234.414 232.776H227.022V238.92ZM269.642 239.064C269.802 239.064 270.106 239.016 270.554 238.92V243.24C269.978 243.4 269.306 243.48 268.538 243.48C265.85 243.48 264.154 242.456 263.45 240.408C261.754 242.456 259.29 243.48 256.058 243.48C253.594 243.48 251.594 242.872 250.058 241.656C248.522 240.408 247.754 238.696 247.754 236.52C247.754 234.408 248.474 232.76 249.914 231.576C251.354 230.392 253.21 229.688 255.482 229.464L263.162 228.648V228.216C263.162 226.712 262.698 225.544 261.77 224.712C260.842 223.848 259.642 223.416 258.17 223.416C256.954 223.416 255.914 223.72 255.05 224.328C254.218 224.936 253.658 225.8 253.37 226.92L248.81 226.104C249.29 223.8 250.41 222.088 252.17 220.968C253.93 219.848 256.026 219.288 258.458 219.288C261.498 219.288 263.898 220.056 265.658 221.592C267.418 223.128 268.298 225.304 268.298 228.12V237.72C268.298 238.616 268.746 239.064 269.642 239.064ZM257.594 239.544C259.322 239.416 260.682 238.84 261.674 237.816C262.666 236.792 263.162 235.368 263.162 233.544V232.536L256.49 233.304C254.058 233.624 252.842 234.696 252.842 236.52C252.842 237.576 253.306 238.36 254.234 238.872C255.162 239.384 256.282 239.608 257.594 239.544ZM274.061 243L279.101 235.128C277.597 234.52 276.413 233.56 275.549 232.248C274.717 230.936 274.301 229.448 274.301 227.784C274.301 225.224 275.069 223.256 276.605 221.88C278.141 220.472 280.205 219.768 282.797 219.768H294.605V243H289.709V235.848H284.093L279.581 243H274.061ZM283.037 231.288H289.709V224.328H283.037C281.917 224.328 280.989 224.648 280.253 225.288C279.549 225.928 279.197 226.76 279.197 227.784C279.197 228.84 279.549 229.688 280.253 230.328C280.989 230.968 281.917 231.288 283.037 231.288ZM333.909 240.168C331.573 242.376 328.645 243.48 325.125 243.48C321.605 243.48 318.677 242.376 316.341 240.168C314.005 237.928 312.837 235.032 312.837 231.48C312.837 227.832 313.989 224.888 316.293 222.648C318.629 220.408 321.573 219.288 325.125 219.288C328.645 219.288 331.573 220.408 333.909 222.648C336.245 224.888 337.413 227.832 337.413 231.48C337.413 235.032 336.245 237.928 333.909 240.168ZM325.125 238.872C327.109 238.872 328.773 238.2 330.117 236.856C331.461 235.48 332.133 233.672 332.133 231.432C332.133 229.128 331.461 227.304 330.117 225.96C328.805 224.584 327.141 223.896 325.125 223.896C323.109 223.896 321.429 224.584 320.085 225.96C318.773 227.304 318.117 229.128 318.117 231.432C318.117 233.672 318.773 235.48 320.085 236.856C321.429 238.2 323.109 238.872 325.125 238.872ZM343.41 243V219.768H364.818V243H359.682V224.328H348.546V243H343.41ZM369.475 243.48V238.92H370.723C373.187 238.92 374.515 237.512 374.707 234.696L375.811 219.768H395.203V243H390.067V224.328H380.659L379.843 234.84C379.619 237.624 378.723 239.768 377.155 241.272C375.619 242.744 373.475 243.48 370.723 243.48H369.475ZM423.105 239.064C423.265 239.064 423.569 239.016 424.017 238.92V243.24C423.441 243.4 422.769 243.48 422.001 243.48C419.313 243.48 417.617 242.456 416.913 240.408C415.217 242.456 412.753 243.48 409.521 243.48C407.057 243.48 405.057 242.872 403.521 241.656C401.985 240.408 401.217 238.696 401.217 236.52C401.217 234.408 401.937 232.76 403.377 231.576C404.817 230.392 406.673 229.688 408.945 229.464L416.625 228.648V228.216C416.625 226.712 416.161 225.544 415.233 224.712C414.305 223.848 413.105 223.416 411.633 223.416C410.417 223.416 409.377 223.72 408.513 224.328C407.681 224.936 407.121 225.8 406.833 226.92L402.273 226.104C402.753 223.8 403.873 222.088 405.633 220.968C407.393 219.848 409.489 219.288 411.921 219.288C414.961 219.288 417.361 220.056 419.121 221.592C420.881 223.128 421.761 225.304 421.761 228.12V237.72C421.761 238.616 422.209 239.064 423.105 239.064ZM411.057 239.544C412.785 239.416 414.145 238.84 415.137 237.816C416.129 236.792 416.625 235.368 416.625 233.544V232.536L409.953 233.304C407.521 233.624 406.305 234.696 406.305 236.52C406.305 237.576 406.769 238.36 407.697 238.872C408.625 239.384 409.745 239.608 411.057 239.544ZM434.628 243V224.328H426.948V219.768H447.396V224.328H439.764V243H434.628ZM472.697 239.064C472.857 239.064 473.161 239.016 473.609 238.92V243.24C473.033 243.4 472.361 243.48 471.593 243.48C468.905 243.48 467.209 242.456 466.505 240.408C464.809 242.456 462.345 243.48 459.113 243.48C456.649 243.48 454.649 242.872 453.113 241.656C451.577 240.408 450.809 238.696 450.809 236.52C450.809 234.408 451.529 232.76 452.969 231.576C454.409 230.392 456.265 229.688 458.537 229.464L466.217 228.648V228.216C466.217 226.712 465.753 225.544 464.825 224.712C463.897 223.848 462.697 223.416 461.225 223.416C460.009 223.416 458.969 223.72 458.105 224.328C457.273 224.936 456.713 225.8 456.425 226.92L451.865 226.104C452.345 223.8 453.465 222.088 455.225 220.968C456.985 219.848 459.081 219.288 461.513 219.288C464.553 219.288 466.953 220.056 468.713 221.592C470.473 223.128 471.353 225.304 471.353 228.12V237.72C471.353 238.616 471.801 239.064 472.697 239.064ZM460.649 239.544C462.377 239.416 463.737 238.84 464.729 237.816C465.721 236.792 466.217 235.368 466.217 233.544V232.536L459.545 233.304C457.113 233.624 455.897 234.696 455.897 236.52C455.897 237.576 456.361 238.36 457.289 238.872C458.217 239.384 459.337 239.608 460.649 239.544Z" fill="white"/>
<defs>
<linearGradient id="paint0_linear_7_476" x1="86.0727" y1="-164.356" x2="238.333" y2="378.812" gradientUnits="userSpaceOnUse">
<stop stop-color="#234D97" stop-opacity="0.88"/>
<stop offset="1" stop-color="#8AC1F0" stop-opacity="0.43"/>
</linearGradient>
</defs>
</svg>
