<svg width="215" height="33" viewBox="0 0 215 33" fill="none" xmlns="http://www.w3.org/2000/svg">
<path d="M29.8743 5.6316V7.89477C29.8743 9.19165 29.7232 10.4536 29.4336 11.6678C28.5208 15.5362 26.2262 18.8769 23.1163 21.1338C22.0461 21.9094 20.8815 22.5578 19.6413 23.0536V21.0161C19.6413 19.6048 19.8459 18.2412 20.2299 16.9507C20.5635 15.8255 21.0326 14.7542 21.6181 13.7657C20.4566 14.6239 19.4714 15.7046 18.7254 16.9507C17.7401 18.5909 17.1736 20.5107 17.1736 22.561V28.114C17.1736 30.0308 15.6375 31.5851 13.7363 31.5851V22.3257C12.2947 23.4541 10.4974 24.1407 8.55215 24.182H8.549C5.41394 24.0899 2.6755 22.3194 1.18981 19.7351C0.434375 18.4256 0 16.9062 0 15.285H8.36644C8.4294 15.285 8.4892 15.285 8.55215 15.285H8.5553C10.5006 15.3264 12.2947 16.0161 13.7394 17.1414C13.7521 17.151 13.7646 17.1605 13.7773 17.17C13.7836 17.0937 13.7898 17.0206 13.7961 16.9475C14.4036 10.6188 19.7231 5.62842 26.1381 5.62842H29.8743V5.6316Z" fill="#00A34C"/>
<path d="M7.21395 1.41406H5.552V4.95505C5.552 8.51193 8.4321 11.4204 11.9543 11.4204H13.6163V7.87938C13.6163 4.3225 10.7361 1.41406 7.21395 1.41406Z" fill="#FFDD33"/>
<path d="M46.8998 10.965V16.0984H55.8013V19.7061H46.8998V26.7786H42.449V7.36035H56.9817V10.9681H46.8998V10.965Z" fill="black"/>
<path d="M60.0037 7.36035H64.4544V26.7786H60.0037V7.36035Z" fill="black"/>
<path d="M86.6509 7.36035V26.7786H82.9964L73.4088 14.9891V26.7786H69.0146V7.36035H72.6943L82.2536 19.1499V7.36035H86.6509Z" fill="black"/>
<path d="M108.71 26.7786L108.682 15.1258L103.022 24.7252H101.017L95.3856 15.3769V26.7786H91.2087V7.36035H94.8886L102.087 19.4295L109.176 7.36035H112.83L112.884 26.7786H108.71Z" fill="black"/>
<path d="M132.336 23.174V26.7786H117.445V7.36035H131.977V10.9681H121.867V15.1861H130.797V18.6826H121.867V23.1772H132.336V23.174Z" fill="black"/>
<path d="M153.517 7.36035V26.7786H149.862L140.274 14.9891V26.7786H135.881V7.36035H139.563L149.123 19.1499V7.36035H153.517Z" fill="black"/>
<path d="M162.06 11.0221H155.906V7.36035H172.664V11.0221H166.511V26.7786H162.06V11.0221Z" fill="black"/>
<path d="M178.695 25.8091C177.093 24.9414 175.837 23.743 174.93 22.2173C174.024 20.6915 173.57 18.9751 173.57 17.0711C173.57 15.1671 174.024 13.4506 174.93 11.9249C175.837 10.3991 177.093 9.20079 178.695 8.33303C180.298 7.46526 182.098 7.02979 184.093 7.02979C186.089 7.02979 187.883 7.46526 189.479 8.33303C191.072 9.20397 192.327 10.3991 193.244 11.9249C194.159 13.4506 194.616 15.1671 194.616 17.0711C194.616 18.9751 194.157 20.6915 193.244 22.2173C192.327 23.743 191.072 24.9414 189.479 25.8091C187.887 26.68 186.089 27.1123 184.093 27.1123C182.098 27.1123 180.298 26.6769 178.695 25.8091ZM187.172 22.4938C188.088 21.9661 188.805 21.2319 189.328 20.2878C189.85 19.3437 190.111 18.2726 190.111 17.0711C190.111 15.8696 189.85 14.7952 189.328 13.8543C188.805 12.9102 188.088 12.1759 187.172 11.6483C186.255 11.1207 185.229 10.8569 184.093 10.8569C182.957 10.8569 181.931 11.1207 181.015 11.6483C180.099 12.1759 179.381 12.9102 178.859 13.8543C178.336 14.7983 178.075 15.8696 178.075 17.0711C178.075 18.2726 178.336 19.3469 178.859 20.2878C179.381 21.2287 180.099 21.9661 181.015 22.4938C181.931 23.0214 182.957 23.2853 184.093 23.2853C185.229 23.2821 186.255 23.0182 187.172 22.4938Z" fill="black"/>
<path d="M210.218 26.7785L206.51 21.3685H206.291H202.415V26.7785H197.965V7.36035H206.291C207.993 7.36035 209.472 7.64643 210.726 8.22176C211.982 8.79391 212.944 9.60761 213.624 10.663C214.301 11.7183 214.641 12.9643 214.641 14.4073C214.641 15.8505 214.298 17.0933 213.612 18.1391C212.926 19.1849 211.95 19.9826 210.688 20.5389L215 26.7818H210.218V26.7785ZM209.091 11.8962C208.396 11.3146 207.379 11.0221 206.042 11.0221H202.415V17.7926H206.042C207.379 17.7926 208.396 17.497 209.091 16.9058C209.787 16.3145 210.137 15.4817 210.137 14.4105C210.137 13.3139 209.787 12.478 209.091 11.8962Z" fill="black"/>
<path d="M172.765 1.92871H155.95V5.5301H172.765V1.92871Z" fill="black"/>
</svg>
