<svg width="316" height="180" viewBox="0 0 316 180" fill="none" xmlns="http://www.w3.org/2000/svg">
<path d="M200 15.4332V24.0386C200 28.9698 199.443 33.768 198.377 38.3848C195.016 53.094 186.567 65.7966 175.116 74.3779C171.176 77.3269 166.888 79.7924 162.321 81.6778V73.9304C162.321 68.5643 163.074 63.3792 164.488 58.4723C165.717 54.1939 167.444 50.1206 169.6 46.362C165.323 49.6251 161.695 53.7343 158.948 58.4723C155.321 64.7089 153.235 72.0088 153.235 79.8046V100.919C153.235 108.207 147.579 114.117 140.578 114.117V78.9101C135.27 83.2007 128.652 85.8114 121.49 85.9684H121.478C109.935 85.6181 99.8514 78.8861 94.381 69.0598C91.5994 64.0805 90 58.3031 90 52.139H120.806C121.038 52.139 121.258 52.139 121.49 52.139H121.501C128.664 52.2963 135.27 54.9188 140.59 59.1976C140.636 59.2338 140.683 59.27 140.729 59.3062C140.752 59.0162 140.775 58.7384 140.799 58.4602C143.035 34.3964 162.622 15.4211 186.243 15.4211H200V15.4332Z" fill="#00A34C"/>
<path d="M116.183 0H110V13.461C110 26.9825 120.714 38.0391 133.817 38.0391H140V24.5779C140 11.0564 129.286 0 116.183 0Z" fill="#FFDD33"/>
<path d="M8.26903 149.583V159.096H24.8071V165.781H8.26903V178.887H0V142.904H27V149.589H8.26903V149.583Z" fill="black"/>
<path d="M32 142.904H40V178.887H32V142.904Z" fill="black"/>
<path d="M81 142.904V178.887H74.3692L56.9729 157.04V178.887H49V142.904H55.6765L73.0215 164.75V142.904H81Z" fill="black"/>
<path d="M121.298 178.887L121.246 157.294L110.801 175.082H107.101L96.7082 157.759V178.887H89V142.904H95.7911L109.076 165.269L122.157 142.904H128.901L129 178.887H121.298Z" fill="black"/>
<path d="M165 172.207V178.887H137V142.904H164.324V149.589H145.316V157.405H162.106V163.885H145.316V172.213H165V172.207Z" fill="black"/>
<path d="M203 142.904V178.887H196.37L178.972 157.04V178.887H171V142.904H177.682L195.028 164.75V142.904H203Z" fill="black"/>
<path d="M219.017 149.689H208V142.904H238V149.689H226.985V178.887H219.017V149.689Z" fill="black"/>
<path d="M249.497 177.446C246.529 175.803 244.201 173.533 242.52 170.643C240.841 167.753 240 164.502 240 160.895C240 157.289 240.841 154.038 242.52 151.148C244.201 148.258 246.529 145.988 249.497 144.344C252.466 142.701 255.802 141.876 259.5 141.876C263.199 141.876 266.523 142.701 269.482 144.344C272.433 145.994 274.759 148.258 276.457 151.148C278.154 154.038 279 157.289 279 160.895C279 164.502 278.149 167.753 276.457 170.643C274.759 173.533 272.433 175.803 269.482 177.446C266.53 179.096 263.199 179.915 259.5 179.915C255.802 179.915 252.466 179.09 249.497 177.446ZM265.205 171.167C266.902 170.167 268.232 168.777 269.2 166.988C270.168 165.2 270.652 163.171 270.652 160.895C270.652 158.62 270.168 156.585 269.2 154.802C268.232 153.014 266.902 151.623 265.205 150.624C263.507 149.625 261.606 149.125 259.5 149.125C257.394 149.125 255.493 149.625 253.796 150.624C252.098 151.623 250.768 153.014 249.8 154.802C248.832 156.59 248.348 158.62 248.348 160.895C248.348 163.171 248.832 165.206 249.8 166.988C250.768 168.77 252.098 170.167 253.796 171.167C255.493 172.166 257.394 172.666 259.5 172.666C261.606 172.66 263.507 172.16 265.205 171.167Z" fill="black"/>
<path d="M307.298 178.881L300.551 168.857H300.151H293.098V178.881H285V142.904H300.151C303.248 142.904 305.941 143.434 308.221 144.5C310.507 145.56 312.259 147.067 313.496 149.023C314.728 150.978 315.346 153.286 315.346 155.96C315.346 158.634 314.722 160.937 313.474 162.874C312.225 164.812 310.449 166.29 308.153 167.32L316 178.887H307.298V178.881ZM305.247 151.308C303.983 150.23 302.131 149.688 299.698 149.688H293.098V162.232H299.698C302.131 162.232 303.983 161.684 305.247 160.589C306.514 159.494 307.15 157.951 307.15 155.966C307.15 153.934 306.514 152.385 305.247 151.308Z" fill="black"/>
<path d="M239 132.623H208V138.792H239V132.623Z" fill="black"/>
</svg>
