<svg width="110" height="33" viewBox="0 0 110 33" fill="none" xmlns="http://www.w3.org/2000/svg">
<g clip-path="url(#clip0_271_741)">
<path d="M58.2014 30.7266L56.557 27.3447C53.548 28.7043 49.8919 28.2794 47.2678 26.0872L49.1746 24.2349H42.562V30.6586L44.5214 28.7553C48.3174 32.0861 53.7579 32.749 58.2014 30.7266Z" fill="#1C1163"/>
<path d="M65.6185 14.0034L62.1374 15.6008C63.5368 18.5238 63.0995 22.0757 60.8428 24.6248L58.936 22.7724V29.1962H65.5486L63.5718 27.2929C67.0181 23.5881 67.7003 18.3199 65.6185 14.0034Z" fill="#1C1163"/>
<path d="M45.7633 12.882L47.6701 14.7344V8.31055H41.0575L43.0167 10.2139C39.5705 13.9186 38.9057 19.1869 40.97 23.5034L44.4512 21.906C43.0692 18.983 43.5066 15.4311 45.7633 12.882Z" fill="#1C1163"/>
<path d="M95.3402 30.2501L89.3398 14.1566L83.1472 30.2501H77.0594L68.5225 7.27393H74.033L80.3132 24.744L86.8383 7.27393H92.0864L98.4191 24.744L104.892 7.27393H110L101.428 30.2501H95.3402Z" fill="#1C1163"/>
<path d="M64.0445 13.2897V6.86585L62.0853 8.76921C58.2717 5.42135 52.8486 4.77556 48.4053 6.78088L50.0497 10.1627C53.0586 8.8032 56.7147 9.22805 59.3388 11.4203L57.4319 13.2727H64.0445V13.2897Z" fill="#1C1163"/>
<path d="M35.0046 0H28.9868V30.2328H35.0046V0Z" fill="#1C1163"/>
<path d="M0 30.2497V0H23.2315V4.67341H6.28022V14.1391H21.2373V18.8126H6.28022V30.2497H0Z" fill="#1C1163"/>
</g>
<defs>
<clipPath id="clip0_271_741">
<rect width="110" height="33" fill="white"/>
</clipPath>
</defs>
</svg>
