<svg width="76" height="62" viewBox="0 0 76 62" fill="none" xmlns="http://www.w3.org/2000/svg">
<g clip-path="url(#clip0_271_515)">
<path d="M6.80472 52.9556L11.4192 48.2976L9.86991 46.7338L6.97749 49.6541L1.72208 44.3459L0 46.0892L6.80472 52.9556ZM8.70514 40.1028L9.86991 41.2743L12.2608 38.8528L13.6485 40.2541L11.252 42.6756L12.7345 44.1666L15.6938 41.179L17.0815 42.5803L12.4001 47.3111L5.58979 40.4447L10.2767 35.7083L11.6644 37.1096L8.70514 40.1028ZM23.8583 35.7531L19.2271 34.4135C19.485 33.8563 19.562 33.2315 19.4469 32.6278C19.3319 32.0241 19.0307 31.4722 18.5862 31.0504C18.3203 30.8007 18.0074 30.607 17.666 30.4806C17.3246 30.3542 16.9615 30.2977 16.5981 30.3144C16.2347 30.3312 15.8783 30.4207 15.5497 30.5779C15.2212 30.7351 14.9272 30.9567 14.685 31.2297L11.2353 34.7106L18.0735 41.5826L19.8011 39.8393L14.2949 34.279L15.4095 33.1579C15.5228 33.0391 15.6583 32.9439 15.8082 32.8779C15.9581 32.8119 16.1195 32.7763 16.2831 32.7731C16.4468 32.77 16.6094 32.7994 16.7617 32.8597C16.914 32.9199 17.053 33.0099 17.1706 33.1243C17.4018 33.3645 17.5287 33.6871 17.5235 34.0213C17.5183 34.3555 17.3813 34.674 17.1428 34.9068L16.1285 35.9325L22.0136 37.6141L23.8583 35.7531ZM20.743 24.8454C22.8719 22.6986 25.6863 22.906 27.6759 24.9183C29.6655 26.9305 29.8772 29.7724 27.7483 31.9192C25.6194 34.066 22.8106 33.8586 20.8154 31.8295C18.8203 29.8004 18.6141 26.9754 20.743 24.8286M22.0917 26.2243C21.0105 27.3117 21.3727 28.6401 22.688 29.9686C24.0032 31.297 25.3129 31.6501 26.3941 30.5683C27.4753 29.4865 27.113 28.1525 25.7978 26.824C24.4825 25.4956 23.1728 25.1032 22.0917 26.2243ZM29.7268 21.2356L28.4561 17.3568L30.4736 15.3221L32.1622 21.9755L34.8261 24.666L33.1041 26.4092L30.4513 23.7299L24.137 21.7177L26.0374 19.8007L29.6878 21.23L29.7268 21.2356ZM61.2091 44.9121L68.0194 38.0457L66.2025 36.2128L59.3978 43.0792L61.2091 44.9121ZM35.1717 18.6236L40.4661 16.0732L36.5538 20.0193L38.131 21.6112L44.9301 14.7392L42.7733 12.5587L37.6517 15.0811L40.2153 9.97474L37.9861 7.72705L31.1813 14.5934L32.753 16.1853L36.6653 12.2393L34.1406 17.581L35.1717 18.6236ZM46.9699 19.5989L45.8051 20.7704L48.4189 23.4048L47.0312 24.8061L44.423 22.1717L42.9405 23.6627L46.1172 26.8689L44.7295 28.2702L39.8252 23.3208L46.6299 16.4488L51.5342 21.3982L50.1465 22.7995L46.9699 19.5989ZM53.5349 37.1713L58.1494 41.8348L59.7043 40.2653L56.8119 37.3506L62.0673 32.0425L60.3397 30.3049L53.5349 37.1713ZM71.8704 41.9301L69.6857 49.2113H69.6801L74.3838 44.4693L76 46.1004L69.1953 52.9668L67.0608 50.8144L68.9222 43.309H68.9278L64.2798 48.0005L62.7082 46.4143L69.5074 39.5479L71.8704 41.9301ZM52.2476 35.8708L53.5572 31.1961C54.111 31.4592 54.7336 31.538 55.3349 31.4211C55.9362 31.3042 56.4848 30.9976 56.9011 30.5459C57.1469 30.2774 57.3375 29.9626 57.4619 29.6197C57.5863 29.2768 57.6421 28.9126 57.626 28.5479C57.61 28.1833 57.5224 27.8254 57.3683 27.4949C57.2143 27.1645 56.9968 26.8679 56.7283 26.6222L53.0668 22.9228L46.2565 29.8116L47.9842 31.5548L53.5015 25.9945L54.8112 27.3453C54.9254 27.4598 55.016 27.5957 55.0779 27.7454C55.1398 27.8951 55.1719 28.0556 55.1721 28.2177C55.1724 28.3799 55.1409 28.5405 55.0794 28.6904C55.018 28.8403 54.9278 28.9765 54.814 29.0913C54.7002 29.2062 54.565 29.2973 54.4161 29.3596C54.2673 29.4219 54.1077 29.4541 53.9465 29.4544C53.7853 29.4546 53.6257 29.4229 53.4766 29.3611C53.3276 29.2993 53.1921 29.2086 53.078 29.0941L51.8296 27.8442L50.3806 34.0099L52.2476 35.8708Z" fill="#251B00"/>
<path d="M8.09766 54.2729H67.9134L38.0028 24.0776L8.09766 54.2729Z" fill="#66C05D"/>
</g>
<defs>
<clipPath id="clip0_271_515">
<rect width="76" height="62" fill="white"/>
</clipPath>
</defs>
</svg>
