<svg width="33" height="45" viewBox="0 0 33 45" fill="none" xmlns="http://www.w3.org/2000/svg">
<g clip-path="url(#clip0_271_174)">
<path d="M1.7624 44.9998C0.974902 44.6623 0.299902 44.3248 0.0749022 43.4248C-0.0375978 43.0873 -0.0375977 42.7498 -0.0375977 42.5248C-0.0375977 29.2498 -0.0375977 15.8623 -0.0375977 2.5873C-0.0375977 1.2373 0.637402 0.449805 1.7624 0.112305C9.5249 0.112305 17.1749 0.112305 24.9374 0.112305C25.1624 0.337305 25.3874 0.449805 25.6124 0.674805C27.9749 3.0373 30.2249 5.2873 32.5874 7.64981C32.9249 7.98731 33.0374 8.32481 33.0374 8.77481C33.0374 20.0248 33.0374 31.3873 33.0374 42.6373C33.0374 43.9873 32.4749 44.7748 31.2374 45.2248C21.4499 44.9998 11.5499 44.9998 1.7624 44.9998ZM24.0374 1.4623C23.8124 1.4623 23.6999 1.4623 23.5874 1.4623C16.6124 1.4623 9.6374 1.4623 2.6624 1.4623C1.7624 1.4623 1.5374 1.6873 1.5374 2.5873C1.5374 15.8623 1.5374 29.0248 1.5374 42.2998C1.5374 43.1998 1.7624 43.4248 2.6624 43.4248C11.8874 43.4248 21.1124 43.4248 30.4499 43.4248C31.3499 43.4248 31.5749 43.1998 31.5749 42.2998C31.5749 31.3873 31.5749 20.3623 31.5749 9.4498C31.5749 9.3373 31.5749 9.1123 31.5749 8.9998C31.3499 8.9998 31.2374 8.9998 31.0124 8.9998C29.4374 8.9998 27.7499 8.9998 26.1749 8.9998C25.1624 8.9998 24.2624 8.0998 24.1499 7.08731C24.0374 6.52481 24.1499 5.8498 24.0374 5.2873C24.0374 4.0498 24.0374 2.8123 24.0374 1.4623ZM30.2249 7.4248C28.6499 5.8498 27.0749 4.27481 25.4999 2.6998C25.4999 2.9248 25.4999 3.2623 25.4999 3.5998C25.4999 4.6123 25.4999 5.6248 25.4999 6.52481C25.4999 7.08731 25.7249 7.4248 26.1749 7.4248C27.5249 7.5373 28.8749 7.4248 30.2249 7.4248Z" fill="#15185B"/>
<path d="M12.7874 23.3149L12.7874 21.8244C12.7874 21.8244 12.7874 21.7119 12.8999 21.7119H27.7499C27.7499 21.7119 27.8624 21.7119 27.8624 21.8244V23.1744C27.8624 23.1744 27.8624 23.2869 27.7499 23.2869L12.7874 23.3149Z" fill="#15185B"/>
<path d="M27.7498 14.2873V15.6373C27.7498 15.6373 27.7498 15.7498 27.6373 15.7498H12.7873C12.7873 15.7498 12.6748 15.7498 12.6748 15.6373V14.2873C12.6748 14.2873 12.6748 14.1748 12.7873 14.1748L27.7498 14.2873Z" fill="#15185B"/>
<path d="M12.7874 30.7125V29.3625C12.7874 29.3625 12.7874 29.25 12.8999 29.25H27.7499C27.7499 29.25 27.8624 29.25 27.8624 29.3625V30.7125C27.8624 30.7125 27.8624 30.825 27.7499 30.825L12.7874 30.7125Z" fill="#15185B"/>
<path d="M28.075 37.1125V38.4625C28.075 38.4625 28.075 38.575 27.9625 38.575H13.1125C13.1125 38.575 13 38.575 13 38.4625V37.1125C13 37.1125 13 37 13.1125 37L28.075 37.1125Z" fill="#15185B"/>
<path d="M9.75 22.5C9.75 23.7375 8.7375 24.75 7.5 24.75C6.2625 24.75 5.25 23.7375 5.25 22.5C5.25 21.2625 6.2625 20.25 7.5 20.25C8.7375 20.25 9.75 21.2625 9.75 22.5ZM8.175 22.5C8.175 22.05 7.8375 21.7125 7.3875 21.825C6.9375 21.825 6.7125 22.1625 6.7125 22.6125C6.7125 23.0625 7.05 23.2875 7.3875 23.2875C7.95 23.2875 8.175 22.95 8.175 22.5Z" fill="#15185B"/>
<path d="M9.75 14.9619C9.75 16.1994 8.7375 17.2119 7.5 17.2119C6.2625 17.2119 5.25 16.1994 5.25 14.9619C5.25 13.7244 6.2625 12.7119 7.5 12.7119C8.7375 12.7119 9.75 13.7244 9.75 14.9619ZM8.175 14.9619C8.175 14.5119 7.8375 14.1744 7.3875 14.1744C7.05 14.1744 6.7125 14.5119 6.6 14.9619C6.6 15.2994 6.9375 15.6369 7.275 15.7494C7.8375 15.7494 8.175 15.4119 8.175 14.9619Z" fill="#15185B"/>
<path d="M9.75 30.0371C9.75 31.2746 8.7375 32.2871 7.5 32.2871C6.2625 32.2871 5.25 31.2746 5.25 30.0371C5.25 28.7996 6.2625 27.7871 7.5 27.7871C8.7375 27.7871 9.75 28.7996 9.75 30.0371ZM7.5 30.7121C7.95 30.7121 8.2875 30.3746 8.175 29.9246C8.175 29.4746 7.8375 29.2496 7.3875 29.2496C6.9375 29.2496 6.6 29.5871 6.6 30.0371C6.825 30.3746 7.1625 30.7121 7.5 30.7121Z" fill="#15185B"/>
<path d="M9.75 37.4619C9.75 38.6994 8.7375 39.7119 7.5 39.7119C6.2625 39.7119 5.25 38.6994 5.25 37.4619C5.25 36.2244 6.2625 35.2119 7.5 35.2119C8.7375 35.2119 9.75 36.2244 9.75 37.4619ZM8.175 37.4619C8.175 37.1244 7.8375 36.7869 7.5 36.6744C7.05 36.6744 6.7125 37.0119 6.7125 37.4619C6.7125 37.7994 7.05 38.1369 7.3875 38.1369C7.8375 38.2494 8.2875 37.9119 8.175 37.4619Z" fill="#15185B"/>
</g>
<defs>
<clipPath id="clip0_271_174">
<rect width="33" height="45" fill="white"/>
</clipPath>
</defs>
</svg>
