<svg width="45" height="45" viewBox="0 0 45 45" fill="none" xmlns="http://www.w3.org/2000/svg">
<g clip-path="url(#clip0_271_102)">
<path d="M1 1V44" stroke="#15185B" stroke-miterlimit="10" stroke-linecap="round" stroke-linejoin="round"/>
<path d="M1 4.96875H3.20513" stroke="#15185B" stroke-miterlimit="10" stroke-linecap="round" stroke-linejoin="round"/>
<path d="M1 10.4375H3.20513" stroke="#15185B" stroke-miterlimit="10" stroke-linecap="round" stroke-linejoin="round"/>
<path d="M1 15.7734H3.20513" stroke="#15185B" stroke-miterlimit="10" stroke-linecap="round" stroke-linejoin="round"/>
<path d="M1 21.2422H3.20513" stroke="#15185B" stroke-miterlimit="10" stroke-linecap="round" stroke-linejoin="round"/>
<path d="M1 26.5791H3.20513" stroke="#15185B" stroke-miterlimit="10" stroke-linecap="round" stroke-linejoin="round"/>
<path d="M1 32.0479H3.20513" stroke="#15185B" stroke-miterlimit="10" stroke-linecap="round" stroke-linejoin="round"/>
<path d="M1 37.5166H3.20513" stroke="#15185B" stroke-miterlimit="10" stroke-linecap="round" stroke-linejoin="round"/>
<path d="M1 44H44" stroke="#15185B" stroke-miterlimit="10" stroke-linecap="round" stroke-linejoin="round"/>
<path d="M4.96924 44.0002V41.751" stroke="#15185B" stroke-miterlimit="10" stroke-linecap="round" stroke-linejoin="round"/>
<path d="M10.438 44.0002V41.751" stroke="#15185B" stroke-miterlimit="10" stroke-linecap="round" stroke-linejoin="round"/>
<path d="M15.7742 44.0002V41.751" stroke="#15185B" stroke-miterlimit="10" stroke-linecap="round" stroke-linejoin="round"/>
<path d="M21.2429 44.0002V41.751" stroke="#15185B" stroke-miterlimit="10" stroke-linecap="round" stroke-linejoin="round"/>
<path d="M26.5796 44.0002V41.751" stroke="#15185B" stroke-miterlimit="10" stroke-linecap="round" stroke-linejoin="round"/>
<path d="M32.0481 44.0002V41.751" stroke="#15185B" stroke-miterlimit="10" stroke-linecap="round" stroke-linejoin="round"/>
<path d="M37.5168 44.0002V41.751" stroke="#15185B" stroke-miterlimit="10" stroke-linecap="round" stroke-linejoin="round"/>
<path d="M6.60107 19.6994L17.6708 11.7168" stroke="#15185B" stroke-miterlimit="10" stroke-linecap="round" stroke-linejoin="round"/>
<path d="M28.2996 15.7742L17.6709 11.7168" stroke="#15185B" stroke-miterlimit="10" stroke-linecap="round" stroke-linejoin="round"/>
<path d="M39.3693 5.05762L28.2996 15.7745" stroke="#15185B" stroke-miterlimit="10" stroke-linecap="round" stroke-linejoin="round"/>
<path d="M5.71899 13.3047L13.5251 22.6103" stroke="#15185B" stroke-miterlimit="10" stroke-linecap="round" stroke-linejoin="round"/>
<path d="M22.0808 17.9355L13.5249 22.6104" stroke="#15185B" stroke-miterlimit="10" stroke-linecap="round" stroke-linejoin="round"/>
<path d="M30.1959 26.5796L22.0811 17.9355" stroke="#15185B" stroke-miterlimit="10" stroke-linecap="round" stroke-linejoin="round"/>
<path d="M41.0009 24.9922L30.1958 26.5799" stroke="#15185B" stroke-miterlimit="10" stroke-linecap="round" stroke-linejoin="round"/>
<path d="M7.08618 35.2231L15.6421 29.8867" stroke="#15185B" stroke-miterlimit="10" stroke-linecap="round" stroke-linejoin="round"/>
<path d="M29.1816 30.3277L15.6421 29.8867" stroke="#15185B" stroke-miterlimit="10" stroke-linecap="round" stroke-linejoin="round"/>
<path d="M39.6337 14.9805L29.1814 30.3282" stroke="#15185B" stroke-miterlimit="10" stroke-linecap="round" stroke-linejoin="round"/>
<path d="M35.8408 16.0389L39.6336 14.9805" stroke="#15185B" stroke-miterlimit="10" stroke-linecap="round" stroke-linejoin="round"/>
<path d="M39.8102 18.2441L39.6338 14.9805" stroke="#15185B" stroke-miterlimit="10" stroke-linecap="round" stroke-linejoin="round"/>
<path d="M41.0008 24.9916L39.0603 23.8008" stroke="#15185B" stroke-miterlimit="10" stroke-linecap="round" stroke-linejoin="round"/>
<path d="M39.281 26.4917L41.001 24.9922" stroke="#15185B" stroke-miterlimit="10" stroke-linecap="round" stroke-linejoin="round"/>
<path d="M35.0474 5.54275L39.3694 5.05762" stroke="#15185B" stroke-miterlimit="10" stroke-linecap="round" stroke-linejoin="round"/>
<path d="M39.0605 8.76223L39.3693 5.05762" stroke="#15185B" stroke-miterlimit="10" stroke-linecap="round" stroke-linejoin="round"/>
</g>
<defs>
<clipPath id="clip0_271_102">
<rect width="45" height="45" fill="white"/>
</clipPath>
</defs>
</svg>
