<svg width="45" height="45" viewBox="0 0 45 45" fill="none" xmlns="http://www.w3.org/2000/svg">
<g clip-path="url(#clip0_271_191)">
<path d="M9.3542 42.91C10.8693 42.91 12.3186 42.91 13.8337 42.91C14.0313 42.91 14.163 42.91 14.4924 42.91C14.4265 42.1263 14.4265 41.3425 14.2289 40.6241C13.8995 39.5791 12.9114 39.2525 11.9892 38.926C11.9233 38.926 11.7257 38.9913 11.6598 39.0566C10.7376 39.5791 9.8812 40.1016 8.95895 40.6241C8.3002 41.016 7.64146 41.0813 6.91684 40.6241C6.06047 40.1016 5.13822 39.5138 4.21598 39.0566C4.08423 38.9913 3.82073 38.926 3.62311 38.9913C3.29373 39.1219 2.89848 39.2525 2.56911 39.4485C1.97624 39.775 1.51512 40.3628 1.44924 41.016C1.38337 41.6038 1.38337 42.1916 1.31749 42.8447C1.51512 42.8447 1.71274 42.8447 1.84449 42.8447C3.16198 42.8447 4.47948 42.8447 5.79697 42.8447C5.92872 42.8447 6.06047 42.8447 6.12634 42.8447L9.3542 42.91ZM6.19222 44.2163C4.61122 44.2163 3.03023 44.2163 1.44924 44.2163C1.31749 44.2163 1.25162 44.2163 1.11987 44.2163C0.395248 44.1509 0 43.7591 0 43.0406C0 42.3222 2.5031e-07 41.6691 0.0658749 40.9507C0.197624 39.775 0.85637 38.8607 1.91036 38.2729C2.70086 37.881 3.55723 37.6851 4.34773 37.3585C4.54535 37.2932 4.74297 37.0972 5.07235 36.9013C4.87472 36.7054 4.74297 36.6401 4.61123 36.5094C2.96436 35.1379 1.91036 33.4398 1.97624 31.1538C2.04211 30.0435 1.97624 28.8679 2.37149 27.7576C3.16198 25.2758 5.4676 23.643 7.90496 23.7083C10.5399 23.7736 12.7138 25.6023 13.3726 28.2148C13.7019 29.6517 13.7678 31.0885 13.5043 32.5254C13.3067 34.0276 12.3844 35.2032 11.2646 36.2482C11.0669 36.4441 10.8693 36.5747 10.6717 36.7707C10.7376 37.0972 11.0011 37.2279 11.2646 37.2932C12.3186 37.5544 13.3067 37.881 14.2289 38.5341C15.744 36.9666 17.1933 35.4644 18.7084 33.897C17.852 32.7213 17.4568 31.4151 17.5885 30.0435C17.7203 27.6923 19.5648 25.537 21.9363 25.0798C22.2656 25.0145 22.3315 24.9492 22.3315 24.6226C22.3315 23.2511 22.3315 21.8795 22.3315 20.4427C22.1339 20.4427 22.0021 20.4427 21.8704 20.4427C20.0918 20.4427 18.379 20.4427 16.6004 20.4427C15.6782 20.4427 15.2829 20.0508 15.2829 19.1364C15.2829 18.4833 15.2829 17.7649 15.3488 17.1118C15.4805 15.9361 16.1393 15.0871 17.1933 14.5646C17.9838 14.1727 18.8401 13.9768 19.6306 13.6502C19.8283 13.5849 20.0259 13.389 20.2894 13.2583C20.0918 13.1277 20.0259 12.9971 19.96 12.9318C18.6425 11.8868 17.5885 10.5806 17.325 8.88244C17.1274 7.18433 17.0615 5.4209 17.7862 3.7881C18.5766 1.82874 19.6965 0.783745 21.8045 0.195937C22.068 0.130625 22.5291 0 23.122 0C23.8466 0 24.5712 0.195936 24.9665 0.391873C27.1404 1.17562 28.4578 2.80842 28.7872 5.09434C28.9848 6.33527 28.9848 7.64151 28.8531 8.88244C28.6555 10.4499 27.6674 11.6909 26.4816 12.7359C26.3499 12.8665 26.2181 12.9971 26.0205 13.1277C26.0205 13.1277 26.0205 13.1277 25.9546 13.2583C26.1522 13.389 26.284 13.5849 26.5475 13.6502C27.2721 13.9115 28.0626 14.1074 28.7213 14.434C30.1047 15.0871 30.8952 16.1321 30.9611 17.6996C30.9611 18.2221 30.9611 18.8099 30.9611 19.3324C30.9611 20.1161 30.5 20.508 29.7753 20.508C27.9308 20.508 26.0864 20.508 24.2419 20.508C24.1101 20.508 23.9125 20.508 23.7149 20.508C23.7149 22.0102 23.7149 23.5123 23.7149 25.0145C24.0442 25.0798 24.3736 25.1451 24.703 25.2758C28.1943 26.4514 29.5777 30.566 27.5356 33.6357C27.338 33.897 27.4039 34.0276 27.6015 34.2888C28.9848 35.6604 30.3023 37.0319 31.6198 38.4688C31.8175 38.6647 32.0151 38.73 32.2786 38.5994C32.8056 38.4035 33.3326 38.2729 33.8596 38.0769C34.0572 38.0116 34.2548 37.8157 34.5183 37.6851C34.0572 37.2932 33.7278 36.9666 33.3984 36.6401C32.1468 35.3338 31.4222 33.897 31.4881 32.0682C31.554 30.9579 31.4881 29.7823 31.8175 28.672C32.6738 26.0595 34.9794 24.4267 37.6144 24.5573C40.1835 24.688 42.4233 26.6473 42.8844 29.3904C43.082 30.6314 43.1479 31.8723 43.0161 33.1132C42.8844 34.8766 41.8304 36.2482 40.447 37.3585C40.3153 37.4238 40.2494 37.5544 39.9859 37.6851C40.2494 37.881 40.3812 38.0116 40.6447 38.1422C41.3693 38.4035 42.1598 38.5994 42.8185 38.926C44.0043 39.4485 44.663 40.1669 44.8606 41.1466C44.8606 41.2119 45.1241 43.6284 44.9265 44.2163C44.7289 44.8041 44.3336 45 43.609 45C42.8844 45 31.2905 45 30.5658 45C29.8412 45 29.3142 44.6081 29.3142 43.7591C29.3142 43.2366 29.3142 42.7141 29.3142 42.2569C29.3801 41.016 29.7095 40.3628 30.6317 39.4485C29.1825 37.9463 27.7332 36.5094 26.284 35.0073C24.0442 36.5747 21.8045 36.5747 19.4989 35.0073C17.9838 36.5747 16.4687 38.1422 14.9535 39.7097C15.5464 40.7547 15.4805 41.9303 15.4805 43.106C15.4805 43.8244 15.0194 44.2816 14.2948 44.2816C12.5821 44.2816 10.8034 44.2816 9.0907 44.2816L6.19222 44.2163ZM39.1295 43.6938C40.5129 43.6938 41.9622 43.6938 43.3455 43.6938C43.4773 43.6938 43.6749 43.6938 43.8725 43.6938C43.8725 42.91 44.0043 42.1263 43.6749 41.4078C43.4114 40.6241 42.1598 39.775 41.3693 39.775C41.2375 39.775 41.1058 39.8404 41.0399 39.9057C40.1835 40.4282 39.2613 40.9507 38.4049 41.4732C37.6803 41.9303 37.0215 41.9303 36.3628 41.4732C35.5064 40.9507 34.6501 40.4935 33.7937 39.9057C33.5302 39.7097 33.2667 39.7097 33.0032 39.8404C32.0809 40.1669 31.2246 40.6241 31.027 41.7344C30.8952 42.3875 30.9611 42.9753 30.8952 43.6938C31.1587 43.6938 31.2905 43.6938 31.4222 43.6938C32.9373 43.6938 34.3866 43.6938 35.9017 43.6938H39.1295ZM3.42548 30.8926C3.42548 31.4151 3.35961 31.9376 3.42548 32.3295C3.8866 34.3541 5.13822 35.7257 7.11446 36.3788C7.50971 36.5094 7.97083 36.5094 8.36608 36.4441C10.6717 35.9869 12.5162 33.3745 12.3186 31.0885C12.3186 30.9579 12.1868 30.8926 12.0551 30.8273C11.5939 30.5007 11.0669 30.3048 10.6717 29.9129C10.3423 29.5864 10.0788 29.4557 9.6177 29.6517C8.43195 30.1089 7.18034 30.1089 5.99459 29.6517C5.92872 29.6517 5.86284 29.5864 5.79697 29.5864C5.59934 29.6517 5.33585 29.5864 5.2041 29.717C4.6771 30.3048 4.1501 30.762 3.42548 30.8926ZM41.8963 32.3295C42.028 31.8723 41.8963 31.611 41.3034 31.4151C40.974 31.3498 40.6447 31.0885 40.3812 30.8273C39.9859 30.3048 39.5248 30.2395 38.9319 30.5007C37.8779 30.8926 36.8239 30.8926 35.7699 30.5007C35.6382 30.4354 35.5723 30.4354 35.4406 30.4354C35.1112 30.3048 34.8477 30.4354 34.5183 30.6314C34.0572 31.0232 33.5302 31.2845 33.0691 31.611C32.9373 31.6763 32.8714 31.8723 32.8056 32.0029C32.7397 34.2235 34.1231 36.3135 36.2311 37.0972C36.6922 37.2932 37.285 37.3585 37.7462 37.2279C39.9859 36.836 42.028 34.4195 41.8963 32.3295ZM18.7084 7.24964C18.7084 7.77213 18.7084 8.29463 18.7743 8.81713C19.2354 10.7112 20.487 12.0174 22.3315 12.7359C22.7926 12.9318 23.4514 12.8665 23.9125 12.7359C26.1522 12.148 27.7991 9.7315 27.6015 7.51089C27.6015 7.38026 27.4697 7.24964 27.338 7.18433C26.9427 6.92308 26.4157 6.72714 26.0864 6.40058C25.6911 5.9434 25.2959 5.87809 24.703 6.07402C23.649 6.46589 22.5291 6.46589 21.4751 6.07402C21.3434 6.00871 21.1458 5.9434 20.9481 5.9434C20.7505 5.9434 20.5529 6.00871 20.4211 6.13933C20.0918 6.66183 19.4989 7.0537 18.7084 7.24964ZM23.122 26.3861C20.8164 26.3861 18.9719 28.2801 18.9719 30.6314C18.9719 32.9173 20.8164 34.8113 23.122 34.8113C25.4276 34.8113 27.2721 32.9173 27.2721 30.6314C27.338 28.3454 25.4276 26.3861 23.122 26.3861ZM29.7095 19.2671C29.7095 18.6792 29.7753 18.0914 29.7095 17.5036C29.6436 16.8505 29.3142 16.328 28.7213 15.9361C28.3261 15.7402 27.9308 15.5443 27.5356 15.4136C27.338 15.3483 27.0745 15.3483 26.9427 15.479C26.0205 16.0015 25.1641 16.524 24.3077 17.0464C23.5831 17.5036 22.9244 17.5036 22.1998 17.0464C21.3434 16.524 20.487 16.0015 19.5648 15.479C19.433 15.4136 19.3013 15.3483 19.1695 15.3483C18.2473 15.4136 17.0615 16.2627 16.8639 17.1118C16.7322 17.8302 16.7322 18.5486 16.6663 19.2671C21.0799 19.2671 25.3617 19.2671 29.7095 19.2671ZM41.7645 30.3048C41.6987 27.9536 39.7883 25.9289 37.4168 25.9289C34.8477 25.9289 33.0691 28.1495 33.0691 30.3048C33.2667 30.1742 33.4643 30.0435 33.5302 29.9129C34.1889 29.0639 35.0453 28.8679 36.0334 29.2598C36.9557 29.5864 37.812 29.5864 38.7343 29.2598C38.8002 29.1945 38.9319 29.1945 39.0637 29.1945C39.8542 28.9332 40.5129 29.1292 41.1058 29.717C41.3034 29.8476 41.501 30.0435 41.7645 30.3048ZM18.906 5.81277C19.1036 5.68215 19.3013 5.55153 19.3671 5.4209C20.0259 4.57184 20.8823 4.37591 21.8704 4.76778C22.7268 5.09434 23.649 5.09434 24.5054 4.76778C24.5712 4.76778 24.703 4.70247 24.7689 4.70247C25.6252 4.44122 26.3499 4.63716 26.9427 5.29028C27.1404 5.48621 27.338 5.61684 27.6015 5.87808C27.5356 3.39623 25.6252 1.50218 23.2537 1.50218C20.6846 1.50218 18.7084 3.7881 18.906 5.81277ZM12.3186 29.5864C12.1868 27.0392 10.0788 25.0798 7.83908 25.1451C5.13822 25.2758 3.62311 27.4964 3.55723 29.521C3.8866 29.2598 4.08423 29.0639 4.34773 28.8026C4.87472 28.3454 5.46759 28.0842 6.12634 28.2801C7.37796 28.7373 8.5637 28.7373 9.74945 28.2801C10.4082 28.0189 11.0011 28.2801 11.5281 28.7373C11.7257 29.0639 11.9892 29.2598 12.3186 29.5864ZM38.9978 38.2729C37.8779 38.73 36.8239 38.73 35.7699 38.2729C35.5064 38.5994 35.3088 38.8607 35.1112 39.1219C35.8358 39.5138 36.4946 39.971 37.2192 40.3628C37.285 40.4282 37.4827 40.4282 37.6144 40.3628C38.339 39.971 39.0637 39.5138 39.7224 39.1219C39.4589 38.8607 39.2613 38.5994 38.9978 38.2729ZM24.8347 13.8462C23.7807 14.238 22.7926 14.3033 21.7386 13.9115C21.6728 13.9115 21.541 13.9115 21.4751 13.9768C21.2775 14.1727 21.1458 14.434 20.9481 14.6952C21.6728 15.0871 22.3315 15.5443 23.0561 15.9361C23.122 16.0015 23.3196 16.0015 23.3855 15.9361C24.1101 15.5443 24.8347 15.0871 25.5594 14.6952C25.2959 14.434 25.0982 14.1727 24.8347 13.8462ZM9.48595 37.5544C8.36608 38.0116 7.31209 38.0116 6.25809 37.5544C5.99459 37.881 5.79697 38.1422 5.59934 38.4035C6.32397 38.7954 7.04859 39.2525 7.77321 39.6444C7.83908 39.7097 8.03671 39.7097 8.10258 39.6444C8.8272 39.2525 9.55182 38.7954 10.2106 38.4035C9.94707 38.0769 9.74945 37.8157 9.48595 37.5544Z" fill="#15185B"/>
<path d="M22.3971 30.8923C22.9241 30.2391 23.517 29.586 24.044 28.9329C24.1099 28.8023 24.1757 28.737 24.3075 28.6063C24.571 28.3451 24.9662 28.3451 25.2297 28.541C25.4932 28.8023 25.5591 29.1288 25.3615 29.3901C24.571 30.3698 23.7805 31.2841 22.99 32.1985C22.7265 32.5251 22.3971 32.5251 22.0677 32.2638C21.6725 31.9373 21.2114 31.5454 20.8161 31.2188C20.5526 30.9576 20.5526 30.5657 20.7502 30.3045C20.9479 30.0432 21.3431 29.9779 21.6725 30.2391C21.8701 30.5004 22.1336 30.6963 22.3971 30.8923Z" fill="#15185B"/>
</g>
<defs>
<clipPath id="clip0_271_191">
<rect width="45" height="45" fill="white"/>
</clipPath>
</defs>
</svg>
