<svg width="45" height="45" viewBox="0 0 45 45" fill="none" xmlns="http://www.w3.org/2000/svg">
<path d="M25.1226 14.622C24.3279 14.5089 23.5375 14.3741 22.7471 14.248C22.0799 14.1437 21.5019 14.3394 21.026 14.822C19.1264 16.7527 17.1248 18.5486 14.8895 20.0661C14.5028 20.3314 14.5071 20.5792 14.864 20.8836C15.6247 21.5228 16.4832 21.575 17.3841 21.2967C18.54 20.9402 19.4876 20.2183 20.3885 19.4269C21.2895 18.6355 21.9906 18.6573 22.8321 19.4921C24.6169 21.2706 26.7332 22.1186 29.2362 21.7924C29.7419 21.7272 30.1244 21.849 30.5239 22.1577C32.1982 23.4491 33.8981 24.7145 35.6064 26.0103C36.5371 25.3972 37.4677 24.7884 38.4239 24.1579C37.1788 20.9228 35.9421 17.7137 34.6885 14.4742C34.255 14.635 33.8471 14.7524 33.4689 14.9307C32.143 15.5482 30.8511 15.5612 29.368 15.3221C29.0365 15.2699 28.705 15.2177 28.3778 15.1568L25.1226 14.622ZM28.552 13.8262C29.181 13.9176 29.674 14.0089 30.3666 14.1132C31.1103 14.1872 31.7308 14.1524 32.3852 13.9045C32.9844 13.6784 33.5836 13.4479 34.17 13.2262C34.1785 12.1739 34.3868 11.8521 35.3472 11.4607C36.3883 11.0346 37.4295 10.6128 38.4749 10.1954C39.3418 9.85185 40.026 10.1562 40.3745 11.0477C40.9227 12.4435 41.4624 13.8436 41.9978 15.2438L43.5957 19.3878C44.0334 20.4879 44.4711 21.5837 44.9088 22.6838C45.0108 22.9621 45.0363 23.223 44.9386 23.5492C44.7898 24.0797 44.2544 24.271 43.6339 24.5188C42.6608 24.8754 41.7003 25.2755 40.7484 25.6799C40.1662 25.9277 39.6265 25.9581 39.1038 25.5364C39.0316 25.4798 38.8531 25.4798 38.7681 25.532C37.9904 26.0277 37.2213 26.5408 36.4563 27.0409C36.9578 29.5803 35.8146 30.9848 33.4009 30.8109C32.9079 32.659 32.2195 33.2069 30.2561 33.2721C30.1754 34.1461 29.8354 34.894 29.0918 35.4028C28.3651 35.8985 27.5746 35.9681 26.7205 35.7158C26.4697 36.9551 25.7941 37.7639 24.5702 38.0335C23.325 38.3075 22.4666 37.5509 21.5444 36.8247C21.3405 37.0638 21.1492 37.2986 20.9452 37.5248C20.2823 38.2509 19.4749 38.5336 18.5272 38.2727C17.5838 38.0118 17.0229 37.3595 16.7934 36.3942C16.7806 36.3333 16.7679 36.2159 16.7126 36.155C16.6574 36.0898 16.5554 36.0855 16.4959 36.0811C15.1063 35.9202 14.4433 35.3549 14.0949 33.9461C14.0864 33.9026 14.0864 33.8591 14.0694 33.82C12.3908 33.5982 11.7236 33.0155 11.4431 31.5197C9.14407 31.137 8.27715 29.7412 9.14832 27.7323C8.99958 27.6192 8.8466 27.4931 8.68086 27.3844C7.83094 26.8322 6.98527 26.2756 6.12685 25.7451C5.99936 25.6668 5.79963 25.7103 5.63389 25.7146C5.25143 25.7277 4.83497 25.8712 4.49925 25.7538C3.30086 25.332 2.13646 24.8189 0.955068 24.3536C0.508859 24.1797 0.224136 23.9275 0.032903 23.4665C-0.0350908 23.2317 0.0116545 22.936 0.0881475 22.6882C0.347374 22.062 0.6151 21.4402 0.857328 20.8054C2.09396 17.605 3.32635 14.4002 4.55874 11.1998C4.9752 10.1215 5.61264 9.83011 6.6623 10.2476C7.72045 10.6693 8.77436 11.0998 9.83251 11.5216C10.4869 11.7825 10.8609 12.2261 10.8567 12.9653C10.8567 13.0696 10.9374 13.2523 11.0351 13.3001C11.8681 13.7175 12.7265 13.9263 13.6784 13.9437C15.51 13.9784 17.3586 13.9437 19.1392 14.535C19.2454 14.5698 19.4111 14.5046 19.5131 14.435C19.6789 14.3133 19.8106 14.1524 19.9551 14.0002C20.8475 13.0566 21.9269 12.7218 23.1805 12.9392C23.886 13.0609 24.5914 13.1696 25.2968 13.2871L28.552 13.8262ZM40.7739 15.7221C40.2215 14.2959 39.669 12.8696 39.0996 11.3912C37.8969 11.8738 36.7156 12.3522 35.4789 12.8522C36.9833 16.7527 38.4749 20.6227 39.9878 24.5449C41.2116 24.0536 42.393 23.5753 43.6084 23.0839C43.0942 21.7446 42.597 20.4444 42.0956 19.1443L40.7739 15.7221ZM22.3859 35.8593C22.8576 36.1463 23.2868 36.4855 23.7755 36.6855C24.3492 36.9203 25.0036 36.5681 25.2714 35.9985C25.5391 35.4245 25.4031 34.8636 24.8931 34.4592C24.5362 34.1765 24.1665 33.9026 23.8265 33.6025C23.444 33.2677 23.4695 32.7503 23.869 32.5068C24.1749 32.3154 24.4512 32.4068 24.7147 32.6155C25.4073 33.159 26.0958 33.7156 26.8055 34.2374C27.4514 34.707 28.2418 34.5853 28.6753 33.9896C29.113 33.3851 28.9728 32.6242 28.3311 32.1154C27.7871 31.6849 27.2389 31.2675 26.7035 30.8283C26.3592 30.55 26.304 30.1543 26.5377 29.8456C26.7757 29.5325 27.1369 29.5021 27.5066 29.7717C27.6979 29.9108 27.8764 30.063 28.0633 30.2065C28.688 30.6935 29.3042 31.1979 29.9459 31.6632C30.5834 32.1198 31.395 31.9763 31.8073 31.3718C32.1855 30.8196 32.1005 29.9543 31.463 29.5238C30.7958 29.0759 30.1669 28.5541 29.5592 28.0193C29.3935 27.8714 29.2702 27.5453 29.3042 27.3322C29.334 27.1409 29.589 26.8887 29.7844 26.8452C29.9842 26.8017 30.2646 26.9235 30.4516 27.0626C31.3568 27.741 32.2365 28.4584 33.1416 29.1368C33.3669 29.3064 33.6558 29.4368 33.9278 29.4803C34.4973 29.5673 35.0497 29.1933 35.2494 28.6628C35.4704 28.0801 35.2749 27.4322 34.714 27.0061C33.0864 25.7712 31.4545 24.5406 29.8142 23.323C29.6569 23.2056 29.4105 23.1404 29.215 23.1578C26.3763 23.4231 23.9667 22.4664 21.9397 20.4618C21.6677 20.1922 21.5104 20.1835 21.2257 20.4401C20.2271 21.3489 19.1434 22.1272 17.8558 22.549C16.5596 22.9708 15.323 22.8926 14.1926 22.0446C12.939 21.1054 12.9985 19.7791 14.2564 18.8529C15.51 17.9311 16.7041 16.9266 17.9195 15.9526C18.013 15.8787 18.0853 15.7743 18.2 15.6482C17.928 15.5917 17.7283 15.5308 17.5286 15.5178C16.1474 15.4264 14.7663 15.3177 13.3809 15.2786C12.6415 15.2569 11.9318 15.1699 11.2519 14.8612C10.9502 14.7264 10.6442 14.6046 10.3085 14.4655C9.02933 17.7876 7.76295 21.0663 6.49231 24.3666C7.68645 25.1407 8.8466 25.8973 10.0237 26.6582C10.385 26.2277 10.7164 25.8103 11.0734 25.419C11.7193 24.7189 12.5183 24.4797 13.4277 24.7232C14.3541 24.9711 14.9235 25.6016 15.153 26.5539C15.1828 26.68 15.221 26.8061 15.255 26.9322C15.935 26.9061 16.5214 27.0844 17.0271 27.5192C17.5413 27.9627 17.7793 28.5585 17.8855 29.202C19.4579 29.2977 20.1038 29.863 20.5458 31.4936C22.8788 31.4414 24.005 34.0678 22.3859 35.8593ZM5.91012 11.3912C4.39726 15.3177 2.90564 19.1921 1.40128 23.0839C2.62942 23.5796 3.81506 24.0536 5.0262 24.5406C6.53906 20.6097 8.03067 16.744 9.53079 12.8479C8.2984 12.3522 7.12551 11.8782 5.91012 11.3912ZM11.3539 30.1369C11.5451 30.1369 11.7533 30.0239 11.9148 29.8456C12.5438 29.1455 13.1557 28.4237 13.7294 27.6714C14.0736 27.2192 13.9334 26.5887 13.4999 26.2321C13.0877 25.8929 12.4715 25.8886 12.1061 26.2973C11.4856 26.9887 10.8949 27.7062 10.3212 28.4367C10.0535 28.7802 10.0705 29.1977 10.2745 29.576C10.4742 29.9412 10.7929 30.1282 11.3539 30.1369ZM12.7222 31.2892C12.633 31.6936 13.0367 32.1719 13.4319 32.3459C13.8696 32.5372 14.3201 32.4459 14.6643 32.0502C15.2083 31.4284 15.7352 30.7935 16.2537 30.1456C16.6871 29.6064 16.6446 28.9585 16.1772 28.5498C15.714 28.1454 15.068 28.2019 14.6218 28.715C14.0906 29.3281 13.5679 29.9499 13.0665 30.5891C12.9135 30.7935 12.7562 31.0892 12.7222 31.2892ZM21.9227 34.2287C22.2414 33.7113 21.6549 33.1329 21.196 32.9025C20.7668 32.7155 20.2993 32.8764 19.9593 33.2677C19.4281 33.8808 18.9097 34.507 18.3955 35.1375C17.945 35.6941 17.9748 36.3551 18.4465 36.7681C18.9224 37.1856 19.5599 37.1117 20.0273 36.5681C20.5373 35.9767 21.009 35.3462 21.5232 34.7592C21.5317 34.7549 21.7782 34.42 21.9227 34.2287ZM19.3091 31.8067C19.4536 31.3545 18.9564 30.85 18.557 30.6718C18.1278 30.4804 17.6645 30.5717 17.3246 30.9588C16.7806 31.5806 16.2537 32.2198 15.7352 32.8633C15.2975 33.4069 15.3315 34.0417 15.799 34.4592C16.2664 34.8766 16.9251 34.807 17.3841 34.2722C17.894 33.6808 18.3997 33.0807 18.8799 32.4676C19.0457 32.2546 19.1944 32.1024 19.3091 31.8067Z" fill="#15185B"/>
</svg>
